  0
SECTION
  2
HEADER
  9
$ACADVER
  1
AC1009
  9
$INSBASE
 10
0.0
 20
0.0
 30
0.0
  9
$EXTMIN
 10
0.0
 20
0.0
 30
0.0
  9
$EXTMAX
 10
0.0
 20
0.0
 30
0.0
  9
$LIMMIN
 10
0.0
 20
0.0
  9
$LIMMAX
 10
12.0
 20
9.0
  9
$ORTHOMODE
 70
     0
  9
$REGENMODE
 70
     1
  9
$FILLMODE
 70
     1
  9
$QTEXTMODE
 70
     0
  9
$MIRRTEXT
 70
     0
  9
$DRAGMODE
 70
     2
  9
$LTSCALE
 40
1.0
  9
$OSMODE
 70
    37
  9
$ATTMODE
 70
     1
  9
$TEXTSIZE
 40
0.2
  9
$TRACEWID
 40
0.05
  9
$TEXTSTYLE
  7
STANDARD
  9
$CLAYER
  8
0
  9
$CELTYPE
  6
BYLAYER
  9
$CECOLOR
 62
   256
  9
$DIMSCALE
 40
1.0
  9
$DIMASZ
 40
0.18
  9
$DIMEXO
 40
0.0625
  9
$DIMDLI
 40
0.38
  9
$DIMRND
 40
0.0
  9
$DIMDLE
 40
0.0
  9
$DIMEXE
 40
0.18
  9
$DIMTP
 40
0.0
  9
$DIMTM
 40
0.0
  9
$DIMTXT
 40
0.18
  9
$DIMCEN
 40
0.09
  9
$DIMTSZ
 40
0.0
  9
$DIMTOL
 70
     0
  9
$DIMLIM
 70
     0
  9
$DIMTIH
 70
     1
  9
$DIMTOH
 70
     1
  9
$DIMSE1
 70
     0
  9
$DIMSE2
 70
     0
  9
$DIMTAD
 70
     0
  9
$DIMZIN
 70
     0
  9
$DIMBLK
  1

  9
$DIMASO
 70
     1
  9
$DIMSHO
 70
     1
  9
$DIMPOST
  1

  9
$DIMAPOST
  1

  9
$DIMALT
 70
     0
  9
$DIMALTD
 70
     2
  9
$DIMALTF
 40
25.4
  9
$DIMLFAC
 40
1.0
  9
$DIMTOFL
 70
     0
  9
$DIMTVP
 40
0.0
  9
$DIMTIX
 70
     0
  9
$DIMSOXD
 70
     0
  9
$DIMSAH
 70
     0
  9
$DIMBLK1
  1

  9
$DIMBLK2
  1

  9
$DIMSTYLE
  2
STANDARD
  9
$DIMCLRD
 70
     0
  9
$DIMCLRE
 70
     0
  9
$DIMCLRT
 70
     0
  9
$DIMTFAC
 40
1.0
  9
$DIMGAP
 40
0.09
  9
$LUNITS
 70
     2
  9
$LUPREC
 70
     4
  9
$SKETCHINC
 40
0.1
  9
$FILLETRAD
 40
0.0
  9
$AUNITS
 70
     0
  9
$AUPREC
 70
     0
  9
$MENU
  1
.
  9
$ELEVATION
 40
0.0
  9
$PELEVATION
 40
0.0
  9
$THICKNESS
 40
0.0
  9
$LIMCHECK
 70
     0
  9
$BLIPMODE
 70
     0
  9
$CHAMFERA
 40
0.0
  9
$CHAMFERB
 40
0.0
  9
$SKPOLY
 70
     0
  9
$TDCREATE
 40
2458531.8645949075
  9
$TDUPDATE
 40
2458531.8645949075
  9
$TDINDWG
 40
0.0
  9
$TDUSRTIMER
 40
0.0
  9
$USRTIMER
 70
     1
  9
$ANGBASE
 50
0.0
  9
$ANGDIR
 70
     0
  9
$PDMODE
 70
     0
  9
$PDSIZE
 40
0.0
  9
$PLINEWID
 40
0.0
  9
$COORDS
 70
     1
  9
$SPLFRAME
 70
     0
  9
$SPLINETYPE
 70
     6
  9
$SPLINESEGS
 70
     8
  9
$ATTDIA
 70
     1
  9
$ATTREQ
 70
     1
  9
$HANDLING
 70
     1
  9
$HANDSEED
  5
1E3
  9
$SURFTAB1
 70
     6
  9
$SURFTAB2
 70
     6
  9
$SURFTYPE
 70
     6
  9
$SURFU
 70
     6
  9
$SURFV
 70
     6
  9
$UCSNAME
  2

  9
$UCSORG
 10
0.0
 20
0.0
 30
0.0
  9
$UCSXDIR
 10
1.0
 20
0.0
 30
0.0
  9
$UCSYDIR
 10
0.0
 20
1.0
 30
0.0
  9
$PUCSNAME
  2

  9
$PUCSORG
 10
0.0
 20
0.0
 30
0.0
  9
$PUCSXDIR
 10
1.0
 20
0.0
 30
0.0
  9
$PUCSYDIR
 10
0.0
 20
1.0
 30
0.0
  9
$USERI1
 70
     0
  9
$USERI2
 70
     0
  9
$USERI3
 70
     0
  9
$USERI4
 70
     0
  9
$USERI5
 70
     0
  9
$USERR1
 40
0.0
  9
$USERR2
 40
0.0
  9
$USERR3
 40
0.0
  9
$USERR4
 40
0.0
  9
$USERR5
 40
0.0
  9
$WORLDVIEW
 70
     1
  9
$SHADEDGE
 70
     3
  9
$SHADEDIF
 70
    70
  9
$TILEMODE
 70
     1
  9
$MAXACTVP
 70
    64
  9
$PLIMCHECK
 70
     0
  9
$PEXTMIN
 10
100000000000000000000.0
 20
100000000000000000000.0
 30
100000000000000000000.0
  9
$PEXTMAX
 10
-100000000000000000000.0
 20
-100000000000000000000.0
 30
-100000000000000000000.0
  9
$PLIMMIN
 10
0.0
 20
0.0
  9
$PLIMMAX
 10
12.0
 20
9.0
  9
$UNITMODE
 70
     0
  9
$VISRETAIN
 70
     1
  9
$PLINEGEN
 70
     0
  9
$PSLTSCALE
 70
     1
  0
ENDSEC
  0
SECTION
  2
TABLES
  0
ENDSEC
  0
SECTION
  2
ENTITIES
  0
POLYLINE
  5
1
100
AcDbEntity
  8
77_03_0009000_2 Parcel
 62
     8
100
AcDb2dPolyline
 66
     1
 10
0.0
 20
0.0
 30
0.0
  0
VERTEX
  5
2
100
AcDbEntity
  8
0
100
AcDbVertex
100
AcDb2dVertex
 10
23012.040000000001
 20
8748.82
 30
0.0
 70
     0
 50
0.0
  0
VERTEX
  5
3
100
AcDbEntity
  8
0
100
AcDbVertex
100
AcDb2dVertex
 10
23029.57
 20
8698.57
 30
0.0
 70
     0
 50
0.0
  0
VERTEX
  5
4
100
AcDbEntity
  8
0
100
AcDbVertex
100
AcDb2dVertex
 10
22962.290000000001
 20
8675.09
 30
0.0
 70
     0
 50
0.0
  0
VERTEX
  5
5
100
AcDbEntity
  8
0
100
AcDbVertex
100
AcDb2dVertex
 10
22944.490000000002
 20
8725.26
 30
0.0
 70
     0
 50
0.0
  0
VERTEX
  5
6
100
AcDbEntity
  8
0
100
AcDbVertex
100
AcDb2dVertex
 10
23012.040000000001
 20
8748.82
 30
0.0
 70
     0
 50
0.0
  0
SEQEND
  5
7
100
AcDbEntity
  8
0
  0
TEXT
  5
8
100
AcDbEntity
  8
77_03_0009000_2 Parcel
 62
     8
100
AcDbText
 10
22987.029999999999
 20
8711.955
 30
0.0
 40
1.0
  1
77_03_0009000_2 Parcel
100
AcDbText
  0
POLYLINE
  5
9
100
AcDbEntity
  8
77_03_0009007_1000 Parcel
 62
     8
100
AcDb2dPolyline
 66
     1
 10
0.0
 20
0.0
 30
0.0
  0
VERTEX
  5
A
100
AcDbEntity
  8
0
100
AcDbVertex
100
AcDb2dVertex
 10
23703.490000000002
 20
9016.110000000001
 30
0.0
 70
     0
 50
0.0
  0
VERTEX
  5
B
100
AcDbEntity
  8
0
100
AcDbVertex
100
AcDb2dVertex
 10
23750.529999999999
 20
9032.219999999999
 30
0.0
 70
     0
 50
0.0
  0
VERTEX
  5
C
100
AcDbEntity
  8
0
100
AcDbVertex
100
AcDb2dVertex
 10
23764.720000000001
 20
9037.08
 30
0.0
 70
     0
 50
0.0
  0
VERTEX
  5
D
100
AcDbEntity
  8
0
100
AcDbVertex
100
AcDb2dVertex
 10
24038.389999999999
 20
9130.799999999999
 30
0.0
 70
     0
 50
0.0
  0
VERTEX
  5
E
100
AcDbEntity
  8
0
100
AcDbVertex
100
AcDb2dVertex
 10
24054.509999999998
 20
9136.469999999999
 30
0.0
 70
     0
 50
0.0
  0
VERTEX
  5
F
100
AcDbEntity
  8
0
100
AcDbVertex
100
AcDb2dVertex
 10
24064.66
 20
9108.34
 30
0.0
 70
     0
 50
0.0
  0
VERTEX
  5
10
100
AcDbEntity
  8
0
100
AcDbVertex
100
AcDb2dVertex
 10
23775.189999999999
 20
9006.530000000001
 30
0.0
 70
     0
 50
0.0
  0
VERTEX
  5
11
100
AcDbEntity
  8
0
100
AcDbVertex
100
AcDb2dVertex
 10
23761.040000000001
 20
9001.549999999999
 30
0.0
 70
     0
 50
0.0
  0
VERTEX
  5
12
100
AcDbEntity
  8
0
100
AcDbVertex
100
AcDb2dVertex
 10
23723.27
 20
8988.27
 30
0.0
 70
     0
 50
0.0
  0
VERTEX
  5
13
100
AcDbEntity
  8
0
100
AcDbVertex
100
AcDb2dVertex
 10
23715.540000000001
 20
8985.43
 30
0.0
 70
     0
 50
0.0
  0
VERTEX
  5
14
100
AcDbEntity
  8
0
100
AcDbVertex
100
AcDb2dVertex
 10
23703.490000000002
 20
9016.110000000001
 30
0.0
 70
     0
 50
0.0
  0
SEQEND
  5
15
100
AcDbEntity
  8
0
  0
TEXT
  5
16
100
AcDbEntity
  8
77_03_0009007_1000 Parcel
 62
     8
100
AcDbText
 10
23884.075000000001
 20
9060.950000000001
 30
0.0
 40
1.0
  1
77_03_0009007_1000 Parcel
100
AcDbText
  0
POLYLINE
  5
17
100
AcDbEntity
  8
77_03_0009007_11 Parcel
 62
     8
100
AcDb2dPolyline
 66
     1
 10
0.0
 20
0.0
 30
0.0
  0
VERTEX
  5
18
100
AcDbEntity
  8
0
100
AcDbVertex
100
AcDb2dVertex
 10
22964.150000000001
 20
8652.370000000001
 30
0.0
 70
     0
 50
0.0
  0
VERTEX
  5
19
100
AcDbEntity
  8
0
100
AcDbVertex
100
AcDb2dVertex
 10
23033.689999999999
 20
8676.98
 30
0.0
 70
     0
 50
0.0
  0
VERTEX
  5
1A
100
AcDbEntity
  8
0
100
AcDbVertex
100
AcDb2dVertex
 10
23061.959999999999
 20
8685.23
 30
0.0
 70
     0
 50
0.0
  0
VERTEX
  5
1B
100
AcDbEntity
  8
0
100
AcDbVertex
100
AcDb2dVertex
 10
23061.98
 20
8685.24
 30
0.0
 70
     0
 50
0.0
  0
VERTEX
  5
1C
100
AcDbEntity
  8
0
100
AcDbVertex
100
AcDb2dVertex
 10
23055.970000000001
 20
8704.93
 30
0.0
 70
     0
 50
0.0
  0
VERTEX
  5
1D
100
AcDbEntity
  8
0
100
AcDbVertex
100
AcDb2dVertex
 10
23055.619999999999
 20
8705.16
 30
0.0
 70
     0
 50
0.0
  0
VERTEX
  5
1E
100
AcDbEntity
  8
0
100
AcDbVertex
100
AcDb2dVertex
 10
23052.299999999999
 20
8708.530000000001
 30
0.0
 70
     0
 50
0.0
  0
VERTEX
  5
1F
100
AcDbEntity
  8
0
100
AcDbVertex
100
AcDb2dVertex
 10
23049.16
 20
8714.040000000001
 30
0.0
 70
     0
 50
0.0
  0
VERTEX
  5
20
100
AcDbEntity
  8
0
100
AcDbVertex
100
AcDb2dVertex
 10
23033.52
 20
8758.860000000001
 30
0.0
 70
     0
 50
0.0
  0
VERTEX
  5
21
100
AcDbEntity
  8
0
100
AcDbVertex
100
AcDb2dVertex
 10
23034.689999999999
 20
8763.77
 30
0.0
 70
     0
 50
0.0
  0
VERTEX
  5
22
100
AcDbEntity
  8
0
100
AcDbVertex
100
AcDb2dVertex
 10
23036.509999999998
 20
8767.27
 30
0.0
 70
     0
 50
0.0
  0
VERTEX
  5
23
100
AcDbEntity
  8
0
100
AcDbVertex
100
AcDb2dVertex
 10
23036.82
 20
8767.610000000001
 30
0.0
 70
     0
 50
0.0
  0
VERTEX
  5
24
100
AcDbEntity
  8
0
100
AcDbVertex
100
AcDb2dVertex
 10
23015.98
 20
8835.85
 30
0.0
 70
     0
 50
0.0
  0
VERTEX
  5
25
100
AcDbEntity
  8
0
100
AcDbVertex
100
AcDb2dVertex
 10
22912.48
 20
8796.959999999999
 30
0.0
 70
     0
 50
0.0
  0
VERTEX
  5
26
100
AcDbEntity
  8
0
100
AcDbVertex
100
AcDb2dVertex
 10
22919.099999999999
 20
8781.07
 30
0.0
 70
     0
 50
0.0
  0
VERTEX
  5
27
100
AcDbEntity
  8
0
100
AcDbVertex
100
AcDb2dVertex
 10
22964.150000000001
 20
8652.370000000001
 30
0.0
 70
     0
 50
0.0
  0
SEQEND
  5
28
100
AcDbEntity
  8
0
  0
TEXT
  5
29
100
AcDbEntity
  8
77_03_0009007_11 Parcel
 62
     8
100
AcDbText
 10
22987.23
 20
8744.110000000001
 30
0.0
 40
1.0
  1
77_03_0009007_11 Parcel
100
AcDbText
  0
POLYLINE
  5
2A
100
AcDbEntity
  8
77_03_0009007_12 Parcel
 62
     8
100
AcDb2dPolyline
 66
     1
 10
0.0
 20
0.0
 30
0.0
  0
VERTEX
  5
2B
100
AcDbEntity
  8
0
100
AcDbVertex
100
AcDb2dVertex
 10
23250.18
 20
8845.860000000001
 30
0.0
 70
     0
 50
0.0
  0
VERTEX
  5
2C
100
AcDbEntity
  8
0
100
AcDbVertex
100
AcDb2dVertex
 10
23331.060000000001
 20
8874.549999999999
 30
0.0
 70
     0
 50
0.0
  0
VERTEX
  5
2D
100
AcDbEntity
  8
0
100
AcDbVertex
100
AcDb2dVertex
 10
23440.799999999999
 20
8920.32
 30
0.0
 70
     0
 50
0.0
  0
VERTEX
  5
2E
100
AcDbEntity
  8
0
100
AcDbVertex
100
AcDb2dVertex
 10
23519.470000000001
 20
8948.610000000001
 30
0.0
 70
     0
 50
0.0
  0
VERTEX
  5
2F
100
AcDbEntity
  8
0
100
AcDbVertex
100
AcDb2dVertex
 10
23524.77
 20
8948.67
 30
0.0
 70
     0
 50
0.0
  0
VERTEX
  5
30
100
AcDbEntity
  8
0
100
AcDbVertex
100
AcDb2dVertex
 10
23529.200000000001
 20
8947.49
 30
0.0
 70
     0
 50
0.0
  0
VERTEX
  5
31
100
AcDbEntity
  8
0
100
AcDbVertex
100
AcDb2dVertex
 10
23532.779999999999
 20
8945.09
 30
0.0
 70
     0
 50
0.0
  0
VERTEX
  5
32
100
AcDbEntity
  8
0
100
AcDbVertex
100
AcDb2dVertex
 10
23535.459999999999
 20
8940.66
 30
0.0
 70
     0
 50
0.0
  0
VERTEX
  5
33
100
AcDbEntity
  8
0
100
AcDbVertex
100
AcDb2dVertex
 10
23553.959999999999
 20
8884.09
 30
0.0
 70
     0
 50
0.0
  0
VERTEX
  5
34
100
AcDbEntity
  8
0
100
AcDbVertex
100
AcDb2dVertex
 10
23553.130000000001
 20
8878.280000000001
 30
0.0
 70
     0
 50
0.0
  0
VERTEX
  5
35
100
AcDbEntity
  8
0
100
AcDbVertex
100
AcDb2dVertex
 10
23550.060000000001
 20
8872.68
 30
0.0
 70
     0
 50
0.0
  0
VERTEX
  5
36
100
AcDbEntity
  8
0
100
AcDbVertex
100
AcDb2dVertex
 10
23545.049999999999
 20
8868.52
 30
0.0
 70
     0
 50
0.0
  0
VERTEX
  5
37
100
AcDbEntity
  8
0
100
AcDbVertex
100
AcDb2dVertex
 10
23073.32
 20
8701.34
 30
0.0
 70
     0
 50
0.0
  0
VERTEX
  5
38
100
AcDbEntity
  8
0
100
AcDbVertex
100
AcDb2dVertex
 10
23070.41
 20
8700.84
 30
0.0
 70
     0
 50
0.0
  0
VERTEX
  5
39
100
AcDbEntity
  8
0
100
AcDbVertex
100
AcDb2dVertex
 10
23067.200000000001
 20
8700.719999999999
 30
0.0
 70
     0
 50
0.0
  0
VERTEX
  5
3A
100
AcDbEntity
  8
0
100
AcDbVertex
100
AcDb2dVertex
 10
23062.93
 20
8701.459999999999
 30
0.0
 70
     0
 50
0.0
  0
VERTEX
  5
3B
100
AcDbEntity
  8
0
100
AcDbVertex
100
AcDb2dVertex
 10
23059.07
 20
8702.9
 30
0.0
 70
     0
 50
0.0
  0
VERTEX
  5
3C
100
AcDbEntity
  8
0
100
AcDbVertex
100
AcDb2dVertex
 10
23055.970000000001
 20
8704.93
 30
0.0
 70
     0
 50
0.0
  0
VERTEX
  5
3D
100
AcDbEntity
  8
0
100
AcDbVertex
100
AcDb2dVertex
 10
23061.98
 20
8685.24
 30
0.0
 70
     0
 50
0.0
  0
VERTEX
  5
3E
100
AcDbEntity
  8
0
100
AcDbVertex
100
AcDb2dVertex
 10
23161.259999999998
 20
8720.379999999999
 30
0.0
 70
     0
 50
0.0
  0
VERTEX
  5
3F
100
AcDbEntity
  8
0
100
AcDbVertex
100
AcDb2dVertex
 10
23274.360000000001
 20
8760.620000000001
 30
0.0
 70
     0
 50
0.0
  0
VERTEX
  5
40
100
AcDbEntity
  8
0
100
AcDbVertex
100
AcDb2dVertex
 10
23336.66
 20
8783.110000000001
 30
0.0
 70
     0
 50
0.0
  0
VERTEX
  5
41
100
AcDbEntity
  8
0
100
AcDbVertex
100
AcDb2dVertex
 10
23464.110000000001
 20
8826.940000000001
 30
0.0
 70
     0
 50
0.0
  0
VERTEX
  5
42
100
AcDbEntity
  8
0
100
AcDbVertex
100
AcDb2dVertex
 10
23632.41
 20
8886.780000000001
 30
0.0
 70
     0
 50
0.0
  0
VERTEX
  5
43
100
AcDbEntity
  8
0
100
AcDbVertex
100
AcDb2dVertex
 10
23680.66
 20
8904.41
 30
0.0
 70
     0
 50
0.0
  0
VERTEX
  5
44
100
AcDbEntity
  8
0
100
AcDbVertex
100
AcDb2dVertex
 10
23824.25
 20
8954.809999999999
 30
0.0
 70
     0
 50
0.0
  0
VERTEX
  5
45
100
AcDbEntity
  8
0
100
AcDbVertex
100
AcDb2dVertex
 10
23837.02
 20
8958.379999999999
 30
0.0
 70
     0
 50
0.0
  0
VERTEX
  5
46
100
AcDbEntity
  8
0
100
AcDbVertex
100
AcDb2dVertex
 10
23845.700000000001
 20
8956.34
 30
0.0
 70
     0
 50
0.0
  0
VERTEX
  5
47
100
AcDbEntity
  8
0
100
AcDbVertex
100
AcDb2dVertex
 10
23851.470000000001
 20
8958.639999999999
 30
0.0
 70
     0
 50
0.0
  0
VERTEX
  5
48
100
AcDbEntity
  8
0
100
AcDbVertex
100
AcDb2dVertex
 10
23963.779999999999
 20
8999.450000000001
 30
0.0
 70
     0
 50
0.0
  0
VERTEX
  5
49
100
AcDbEntity
  8
0
100
AcDbVertex
100
AcDb2dVertex
 10
24071.240000000002
 20
9041.860000000001
 30
0.0
 70
     0
 50
0.0
  0
VERTEX
  5
4A
100
AcDbEntity
  8
0
100
AcDbVertex
100
AcDb2dVertex
 10
24154.450000000001
 20
9077.1
 30
0.0
 70
     0
 50
0.0
  0
VERTEX
  5
4B
100
AcDbEntity
  8
0
100
AcDbVertex
100
AcDb2dVertex
 10
24232.799999999999
 20
9113.950000000001
 30
0.0
 70
     0
 50
0.0
  0
VERTEX
  5
4C
100
AcDbEntity
  8
0
100
AcDbVertex
100
AcDb2dVertex
 10
24252.369999999999
 20
9124.139999999999
 30
0.0
 70
     0
 50
0.0
  0
VERTEX
  5
4D
100
AcDbEntity
  8
0
100
AcDbVertex
100
AcDb2dVertex
 10
24271.939999999999
 20
9134.33
 30
0.0
 70
     0
 50
0.0
  0
VERTEX
  5
4E
100
AcDbEntity
  8
0
100
AcDbVertex
100
AcDb2dVertex
 10
24303.740000000002
 20
9151.74
 30
0.0
 70
     0
 50
0.0
  0
VERTEX
  5
4F
100
AcDbEntity
  8
0
100
AcDbVertex
100
AcDb2dVertex
 10
24320.709999999999
 20
9160.969999999999
 30
0.0
 70
     0
 50
0.0
  0
VERTEX
  5
50
100
AcDbEntity
  8
0
100
AcDbVertex
100
AcDb2dVertex
 10
24334.330000000002
 20
9170.299999999999
 30
0.0
 70
     0
 50
0.0
  0
VERTEX
  5
51
100
AcDbEntity
  8
0
100
AcDbVertex
100
AcDb2dVertex
 10
24135.34
 20
9233.98
 30
0.0
 70
     0
 50
0.0
  0
VERTEX
  5
52
100
AcDbEntity
  8
0
100
AcDbVertex
100
AcDb2dVertex
 10
23946.290000000001
 20
9165.01
 30
0.0
 70
     0
 50
0.0
  0
VERTEX
  5
53
100
AcDbEntity
  8
0
100
AcDbVertex
100
AcDb2dVertex
 10
23829.959999999999
 20
9124.360000000001
 30
0.0
 70
     0
 50
0.0
  0
VERTEX
  5
54
100
AcDbEntity
  8
0
100
AcDbVertex
100
AcDb2dVertex
 10
23015.98
 20
8835.85
 30
0.0
 70
     0
 50
0.0
  0
VERTEX
  5
55
100
AcDbEntity
  8
0
100
AcDbVertex
100
AcDb2dVertex
 10
23036.82
 20
8767.610000000001
 30
0.0
 70
     0
 50
0.0
  0
VERTEX
  5
56
100
AcDbEntity
  8
0
100
AcDbVertex
100
AcDb2dVertex
 10
23039.759999999998
 20
8770.77
 30
0.0
 70
     0
 50
0.0
  0
VERTEX
  5
57
100
AcDbEntity
  8
0
100
AcDbVertex
100
AcDb2dVertex
 10
23044.360000000001
 20
8772.940000000001
 30
0.0
 70
     0
 50
0.0
  0
VERTEX
  5
58
100
AcDbEntity
  8
0
100
AcDbVertex
100
AcDb2dVertex
 10
23069.93
 20
8782.0
 30
0.0
 70
     0
 50
0.0
  0
VERTEX
  5
59
100
AcDbEntity
  8
0
100
AcDbVertex
100
AcDb2dVertex
 10
23069.77
 20
8782.450000000001
 30
0.0
 70
     0
 50
0.0
  0
VERTEX
  5
5A
100
AcDbEntity
  8
0
100
AcDbVertex
100
AcDb2dVertex
 10
23074.970000000001
 20
8784.33
 30
0.0
 70
     0
 50
0.0
  0
VERTEX
  5
5B
100
AcDbEntity
  8
0
100
AcDbVertex
100
AcDb2dVertex
 10
23075.139999999999
 20
8783.84
 30
0.0
 70
     0
 50
0.0
  0
VERTEX
  5
5C
100
AcDbEntity
  8
0
100
AcDbVertex
100
AcDb2dVertex
 10
23084.099999999999
 20
8787.02
 30
0.0
 70
     0
 50
0.0
  0
VERTEX
  5
5D
100
AcDbEntity
  8
0
100
AcDbVertex
100
AcDb2dVertex
 10
23083.869999999999
 20
8787.68
 30
0.0
 70
     0
 50
0.0
  0
VERTEX
  5
5E
100
AcDbEntity
  8
0
100
AcDbVertex
100
AcDb2dVertex
 10
23083.009999999998
 20
8790.15
 30
0.0
 70
     0
 50
0.0
  0
VERTEX
  5
5F
100
AcDbEntity
  8
0
100
AcDbVertex
100
AcDb2dVertex
 10
23093.540000000001
 20
8793.969999999999
 30
0.0
 70
     0
 50
0.0
  0
VERTEX
  5
60
100
AcDbEntity
  8
0
100
AcDbVertex
100
AcDb2dVertex
 10
23094.68
 20
8790.77
 30
0.0
 70
     0
 50
0.0
  0
VERTEX
  5
61
100
AcDbEntity
  8
0
100
AcDbVertex
100
AcDb2dVertex
 10
23139.98
 20
8806.82
 30
0.0
 70
     0
 50
0.0
  0
VERTEX
  5
62
100
AcDbEntity
  8
0
100
AcDbVertex
100
AcDb2dVertex
 10
23138.27
 20
8811.84
 30
0.0
 70
     0
 50
0.0
  0
VERTEX
  5
63
100
AcDbEntity
  8
0
100
AcDbVertex
100
AcDb2dVertex
 10
23147.77
 20
8815.219999999999
 30
0.0
 70
     0
 50
0.0
  0
VERTEX
  5
64
100
AcDbEntity
  8
0
100
AcDbVertex
100
AcDb2dVertex
 10
23149.490000000002
 20
8810.190000000001
 30
0.0
 70
     0
 50
0.0
  0
VERTEX
  5
65
100
AcDbEntity
  8
0
100
AcDbVertex
100
AcDb2dVertex
 10
23250.18
 20
8845.860000000001
 30
0.0
 70
     0
 50
0.0
  0
SEQEND
  5
66
100
AcDbEntity
  8
0
  0
POLYLINE
  5
67
100
AcDbEntity
  8
77_03_0009007_12 Parcel
 62
     8
100
AcDb2dPolyline
 66
     1
 10
0.0
 20
0.0
 30
0.0
  0
VERTEX
  5
68
100
AcDbEntity
  8
0
100
AcDbVertex
100
AcDb2dVertex
 10
23579.18
 20
8881.67
 30
0.0
 70
     0
 50
0.0
  0
VERTEX
  5
69
100
AcDbEntity
  8
0
100
AcDbVertex
100
AcDb2dVertex
 10
23719.439999999999
 20
8931.379999999999
 30
0.0
 70
     0
 50
0.0
  0
VERTEX
  5
6A
100
AcDbEntity
  8
0
100
AcDbVertex
100
AcDb2dVertex
 10
23721.380000000001
 20
8932.09
 30
0.0
 70
     0
 50
0.0
  0
VERTEX
  5
6B
100
AcDbEntity
  8
0
100
AcDbVertex
100
AcDb2dVertex
 10
23709.529999999999
 20
8969.16
 30
0.0
 70
     0
 50
0.0
  0
VERTEX
  5
6C
100
AcDbEntity
  8
0
100
AcDbVertex
100
AcDb2dVertex
 10
23696.849999999999
 20
8964.51
 30
0.0
 70
     0
 50
0.0
  0
VERTEX
  5
6D
100
AcDbEntity
  8
0
100
AcDbVertex
100
AcDb2dVertex
 10
23692.02
 20
8977.48
 30
0.0
 70
     0
 50
0.0
  0
VERTEX
  5
6E
100
AcDbEntity
  8
0
100
AcDbVertex
100
AcDb2dVertex
 10
23692.869999999999
 20
8977.82
 30
0.0
 70
     0
 50
0.0
  0
VERTEX
  5
6F
100
AcDbEntity
  8
0
100
AcDbVertex
100
AcDb2dVertex
 10
23715.540000000001
 20
8985.43
 30
0.0
 70
     0
 50
0.0
  0
VERTEX
  5
70
100
AcDbEntity
  8
0
100
AcDbVertex
100
AcDb2dVertex
 10
23723.27
 20
8988.27
 30
0.0
 70
     0
 50
0.0
  0
VERTEX
  5
71
100
AcDbEntity
  8
0
100
AcDbVertex
100
AcDb2dVertex
 10
23761.040000000001
 20
9001.549999999999
 30
0.0
 70
     0
 50
0.0
  0
VERTEX
  5
72
100
AcDbEntity
  8
0
100
AcDbVertex
100
AcDb2dVertex
 10
23775.189999999999
 20
9006.530000000001
 30
0.0
 70
     0
 50
0.0
  0
VERTEX
  5
73
100
AcDbEntity
  8
0
100
AcDbVertex
100
AcDb2dVertex
 10
24064.66
 20
9108.34
 30
0.0
 70
     0
 50
0.0
  0
VERTEX
  5
74
100
AcDbEntity
  8
0
100
AcDbVertex
100
AcDb2dVertex
 10
24054.509999999998
 20
9136.469999999999
 30
0.0
 70
     0
 50
0.0
  0
VERTEX
  5
75
100
AcDbEntity
  8
0
100
AcDbVertex
100
AcDb2dVertex
 10
24038.389999999999
 20
9130.799999999999
 30
0.0
 70
     0
 50
0.0
  0
VERTEX
  5
76
100
AcDbEntity
  8
0
100
AcDbVertex
100
AcDb2dVertex
 10
23764.720000000001
 20
9037.08
 30
0.0
 70
     0
 50
0.0
  0
VERTEX
  5
77
100
AcDbEntity
  8
0
100
AcDbVertex
100
AcDb2dVertex
 10
23750.529999999999
 20
9032.219999999999
 30
0.0
 70
     0
 50
0.0
  0
VERTEX
  5
78
100
AcDbEntity
  8
0
100
AcDbVertex
100
AcDb2dVertex
 10
23703.490000000002
 20
9016.110000000001
 30
0.0
 70
     0
 50
0.0
  0
VERTEX
  5
79
100
AcDbEntity
  8
0
100
AcDbVertex
100
AcDb2dVertex
 10
23697.139999999999
 20
9013.98
 30
0.0
 70
     0
 50
0.0
  0
VERTEX
  5
7A
100
AcDbEntity
  8
0
100
AcDbVertex
100
AcDb2dVertex
 10
23696.110000000001
 20
9016.969999999999
 30
0.0
 70
     0
 50
0.0
  0
VERTEX
  5
7B
100
AcDbEntity
  8
0
100
AcDbVertex
100
AcDb2dVertex
 10
23694.439999999999
 20
9016.379999999999
 30
0.0
 70
     0
 50
0.0
  0
VERTEX
  5
7C
100
AcDbEntity
  8
0
100
AcDbVertex
100
AcDb2dVertex
 10
23546.810000000001
 20
8964.059999999999
 30
0.0
 70
     0
 50
0.0
  0
VERTEX
  5
7D
100
AcDbEntity
  8
0
100
AcDbVertex
100
AcDb2dVertex
 10
23549.66
 20
8961.59
 30
0.0
 70
     0
 50
0.0
  0
VERTEX
  5
7E
100
AcDbEntity
  8
0
100
AcDbVertex
100
AcDb2dVertex
 10
23559.259999999998
 20
8932.99
 30
0.0
 70
     0
 50
0.0
  0
VERTEX
  5
7F
100
AcDbEntity
  8
0
100
AcDbVertex
100
AcDb2dVertex
 10
23568.119999999999
 20
8935.959999999999
 30
0.0
 70
     0
 50
0.0
  0
VERTEX
  5
80
100
AcDbEntity
  8
0
100
AcDbVertex
100
AcDb2dVertex
 10
23579.18
 20
8881.67
 30
0.0
 70
     0
 50
0.0
  0
SEQEND
  5
81
100
AcDbEntity
  8
0
  0
POLYLINE
  5
82
100
AcDbEntity
  8
77_03_0009007_12 Parcel
 62
     8
100
AcDb2dPolyline
 66
     1
 10
0.0
 20
0.0
 30
0.0
  0
VERTEX
  5
83
100
AcDbEntity
  8
0
100
AcDbVertex
100
AcDb2dVertex
 10
24168.27
 20
9102.709999999999
 30
0.0
 70
     0
 50
0.0
  0
VERTEX
  5
84
100
AcDbEntity
  8
0
100
AcDbVertex
100
AcDb2dVertex
 10
24259.029999999999
 20
9140.18
 30
0.0
 70
     0
 50
0.0
  0
VERTEX
  5
85
100
AcDbEntity
  8
0
100
AcDbVertex
100
AcDb2dVertex
 10
24160.779999999999
 20
9176.26
 30
0.0
 70
     0
 50
0.0
  0
VERTEX
  5
86
100
AcDbEntity
  8
0
100
AcDbVertex
100
AcDb2dVertex
 10
24142.23
 20
9168.16
 30
0.0
 70
     0
 50
0.0
  0
VERTEX
  5
87
100
AcDbEntity
  8
0
100
AcDbVertex
100
AcDb2dVertex
 10
24153.880000000001
 20
9138.17
 30
0.0
 70
     0
 50
0.0
  0
VERTEX
  5
88
100
AcDbEntity
  8
0
100
AcDbVertex
100
AcDb2dVertex
 10
24168.27
 20
9102.709999999999
 30
0.0
 70
     0
 50
0.0
  0
SEQEND
  5
89
100
AcDbEntity
  8
0
  0
TEXT
  5
8A
100
AcDbEntity
  8
77_03_0009007_12 Parcel
 62
     8
100
AcDbText
 10
23675.154999999999
 20
8959.610000000001
 30
0.0
 40
1.0
  1
77_03_0009007_12 Parcel
100
AcDbText
  0
POLYLINE
  5
8B
100
AcDbEntity
  8
77_03_0009007_1222 Parcel
 62
     8
100
AcDb2dPolyline
 66
     1
 10
0.0
 20
0.0
 30
0.0
  0
VERTEX
  5
8C
100
AcDbEntity
  8
0
100
AcDbVertex
100
AcDb2dVertex
 10
23331.060000000001
 20
8874.549999999999
 30
0.0
 70
     0
 50
0.0
  0
VERTEX
  5
8D
100
AcDbEntity
  8
0
100
AcDbVertex
100
AcDb2dVertex
 10
23440.799999999999
 20
8920.32
 30
0.0
 70
     0
 50
0.0
  0
VERTEX
  5
8E
100
AcDbEntity
  8
0
100
AcDbVertex
100
AcDb2dVertex
 10
23519.470000000001
 20
8948.610000000001
 30
0.0
 70
     0
 50
0.0
  0
VERTEX
  5
8F
100
AcDbEntity
  8
0
100
AcDbVertex
100
AcDb2dVertex
 10
23524.77
 20
8948.67
 30
0.0
 70
     0
 50
0.0
  0
VERTEX
  5
90
100
AcDbEntity
  8
0
100
AcDbVertex
100
AcDb2dVertex
 10
23529.200000000001
 20
8947.49
 30
0.0
 70
     0
 50
0.0
  0
VERTEX
  5
91
100
AcDbEntity
  8
0
100
AcDbVertex
100
AcDb2dVertex
 10
23532.779999999999
 20
8945.09
 30
0.0
 70
     0
 50
0.0
  0
VERTEX
  5
92
100
AcDbEntity
  8
0
100
AcDbVertex
100
AcDb2dVertex
 10
23535.459999999999
 20
8940.66
 30
0.0
 70
     0
 50
0.0
  0
VERTEX
  5
93
100
AcDbEntity
  8
0
100
AcDbVertex
100
AcDb2dVertex
 10
23553.959999999999
 20
8884.09
 30
0.0
 70
     0
 50
0.0
  0
VERTEX
  5
94
100
AcDbEntity
  8
0
100
AcDbVertex
100
AcDb2dVertex
 10
23553.130000000001
 20
8878.280000000001
 30
0.0
 70
     0
 50
0.0
  0
VERTEX
  5
95
100
AcDbEntity
  8
0
100
AcDbVertex
100
AcDb2dVertex
 10
23550.060000000001
 20
8872.68
 30
0.0
 70
     0
 50
0.0
  0
VERTEX
  5
96
100
AcDbEntity
  8
0
100
AcDbVertex
100
AcDb2dVertex
 10
23545.049999999999
 20
8868.52
 30
0.0
 70
     0
 50
0.0
  0
VERTEX
  5
97
100
AcDbEntity
  8
0
100
AcDbVertex
100
AcDb2dVertex
 10
23073.32
 20
8701.34
 30
0.0
 70
     0
 50
0.0
  0
VERTEX
  5
98
100
AcDbEntity
  8
0
100
AcDbVertex
100
AcDb2dVertex
 10
23070.41
 20
8700.84
 30
0.0
 70
     0
 50
0.0
  0
VERTEX
  5
99
100
AcDbEntity
  8
0
100
AcDbVertex
100
AcDb2dVertex
 10
23067.200000000001
 20
8700.719999999999
 30
0.0
 70
     0
 50
0.0
  0
VERTEX
  5
9A
100
AcDbEntity
  8
0
100
AcDbVertex
100
AcDb2dVertex
 10
23062.93
 20
8701.459999999999
 30
0.0
 70
     0
 50
0.0
  0
VERTEX
  5
9B
100
AcDbEntity
  8
0
100
AcDbVertex
100
AcDb2dVertex
 10
23059.07
 20
8702.9
 30
0.0
 70
     0
 50
0.0
  0
VERTEX
  5
9C
100
AcDbEntity
  8
0
100
AcDbVertex
100
AcDb2dVertex
 10
23055.970000000001
 20
8704.93
 30
0.0
 70
     0
 50
0.0
  0
VERTEX
  5
9D
100
AcDbEntity
  8
0
100
AcDbVertex
100
AcDb2dVertex
 10
23036.830000000002
 20
8767.610000000001
 30
0.0
 70
     0
 50
0.0
  0
VERTEX
  5
9E
100
AcDbEntity
  8
0
100
AcDbVertex
100
AcDb2dVertex
 10
23039.759999999998
 20
8770.77
 30
0.0
 70
     0
 50
0.0
  0
VERTEX
  5
9F
100
AcDbEntity
  8
0
100
AcDbVertex
100
AcDb2dVertex
 10
23044.360000000001
 20
8772.940000000001
 30
0.0
 70
     0
 50
0.0
  0
VERTEX
  5
A0
100
AcDbEntity
  8
0
100
AcDbVertex
100
AcDb2dVertex
 10
23068.810000000001
 20
8781.6
 30
0.0
 70
     0
 50
0.0
  0
VERTEX
  5
A1
100
AcDbEntity
  8
0
100
AcDbVertex
100
AcDb2dVertex
 10
23071.779999999999
 20
8772.959999999999
 30
0.0
 70
     0
 50
0.0
  0
VERTEX
  5
A2
100
AcDbEntity
  8
0
100
AcDbVertex
100
AcDb2dVertex
 10
23099.389999999999
 20
8781.610000000001
 30
0.0
 70
     0
 50
0.0
  0
VERTEX
  5
A3
100
AcDbEntity
  8
0
100
AcDbVertex
100
AcDb2dVertex
 10
23095.959999999999
 20
8791.219999999999
 30
0.0
 70
     0
 50
0.0
  0
VERTEX
  5
A4
100
AcDbEntity
  8
0
100
AcDbVertex
100
AcDb2dVertex
 10
23139.040000000001
 20
8806.48
 30
0.0
 70
     0
 50
0.0
  0
VERTEX
  5
A5
100
AcDbEntity
  8
0
100
AcDbVertex
100
AcDb2dVertex
 10
23139.98
 20
8803.709999999999
 30
0.0
 70
     0
 50
0.0
  0
VERTEX
  5
A6
100
AcDbEntity
  8
0
100
AcDbVertex
100
AcDb2dVertex
 10
23151.470000000001
 20
8807.5
 30
0.0
 70
     0
 50
0.0
  0
VERTEX
  5
A7
100
AcDbEntity
  8
0
100
AcDbVertex
100
AcDb2dVertex
 10
23150.419999999998
 20
8810.51
 30
0.0
 70
     0
 50
0.0
  0
VERTEX
  5
A8
100
AcDbEntity
  8
0
100
AcDbVertex
100
AcDb2dVertex
 10
23250.18
 20
8845.860000000001
 30
0.0
 70
     0
 50
0.0
  0
VERTEX
  5
A9
100
AcDbEntity
  8
0
100
AcDbVertex
100
AcDb2dVertex
 10
23331.060000000001
 20
8874.549999999999
 30
0.0
 70
     0
 50
0.0
  0
SEQEND
  5
AA
100
AcDbEntity
  8
0
  0
POLYLINE
  5
AB
100
AcDbEntity
  8
77_03_0009007_1222 Parcel
 62
     8
100
AcDb2dPolyline
 66
     1
 10
0.0
 20
0.0
 30
0.0
  0
VERTEX
  5
AC
100
AcDbEntity
  8
0
100
AcDbVertex
100
AcDb2dVertex
 10
23484.220000000001
 20
8905.76
 30
0.0
 70
     0
 50
0.0
  0
VERTEX
  5
AD
100
AcDbEntity
  8
0
100
AcDbVertex
100
AcDb2dVertex
 10
23490.07
 20
8888.91
 30
0.0
 70
     0
 50
0.0
  0
VERTEX
  5
AE
100
AcDbEntity
  8
0
100
AcDbVertex
100
AcDb2dVertex
 10
23486.0
 20
8887.68
 30
0.0
 70
     0
 50
0.0
  0
VERTEX
  5
AF
100
AcDbEntity
  8
0
100
AcDbVertex
100
AcDb2dVertex
 10
23478.279999999999
 20
8885.82
 30
0.0
 70
     0
 50
0.0
  0
VERTEX
  5
B0
100
AcDbEntity
  8
0
100
AcDbVertex
100
AcDb2dVertex
 10
23472.810000000001
 20
8901.450000000001
 30
0.0
 70
     0
 50
0.0
  0
VERTEX
  5
B1
100
AcDbEntity
  8
0
100
AcDbVertex
100
AcDb2dVertex
 10
23484.220000000001
 20
8905.76
 30
0.0
 70
     0
 50
0.0
  0
SEQEND
  5
B2
100
AcDbEntity
  8
0
  0
POLYLINE
  5
B3
100
AcDbEntity
  8
77_03_0009007_1222 Parcel
 62
     8
100
AcDb2dPolyline
 66
     1
 10
0.0
 20
0.0
 30
0.0
  0
VERTEX
  5
B4
100
AcDbEntity
  8
0
100
AcDbVertex
100
AcDb2dVertex
 10
23519.529999999999
 20
8910.059999999999
 30
0.0
 70
     0
 50
0.0
  0
VERTEX
  5
B5
100
AcDbEntity
  8
0
100
AcDbVertex
100
AcDb2dVertex
 10
23520.869999999999
 20
8906.280000000001
 30
0.0
 70
     0
 50
0.0
  0
VERTEX
  5
B6
100
AcDbEntity
  8
0
100
AcDbVertex
100
AcDb2dVertex
 10
23520.060000000001
 20
8905.559999999999
 30
0.0
 70
     0
 50
0.0
  0
VERTEX
  5
B7
100
AcDbEntity
  8
0
100
AcDbVertex
100
AcDb2dVertex
 10
23522.91
 20
8899.23
 30
0.0
 70
     0
 50
0.0
  0
VERTEX
  5
B8
100
AcDbEntity
  8
0
100
AcDbVertex
100
AcDb2dVertex
 10
23515.75
 20
8896.84
 30
0.0
 70
     0
 50
0.0
  0
VERTEX
  5
B9
100
AcDbEntity
  8
0
100
AcDbVertex
100
AcDb2dVertex
 10
23512.130000000001
 20
8907.280000000001
 30
0.0
 70
     0
 50
0.0
  0
VERTEX
  5
BA
100
AcDbEntity
  8
0
100
AcDbVertex
100
AcDb2dVertex
 10
23519.529999999999
 20
8910.059999999999
 30
0.0
 70
     0
 50
0.0
  0
SEQEND
  5
BB
100
AcDbEntity
  8
0
  0
TEXT
  5
BC
100
AcDbEntity
  8
77_03_0009007_1222 Parcel
 62
     8
100
AcDbText
 10
23295.395
 20
8824.695
 30
0.0
 40
1.0
  1
77_03_0009007_1222 Parcel
100
AcDbText
  0
POLYLINE
  5
BD
100
AcDbEntity
  8
77_03_0009007_1224 Parcel
 62
     8
100
AcDb2dPolyline
 66
     1
 10
0.0
 20
0.0
 30
0.0
  0
VERTEX
  5
BE
100
AcDbEntity
  8
0
100
AcDbVertex
100
AcDb2dVertex
 10
23694.439999999999
 20
9016.379999999999
 30
0.0
 70
     0
 50
0.0
  0
VERTEX
  5
BF
100
AcDbEntity
  8
0
100
AcDbVertex
100
AcDb2dVertex
 10
23696.110000000001
 20
9016.969999999999
 30
0.0
 70
     0
 50
0.0
  0
VERTEX
  5
C0
100
AcDbEntity
  8
0
100
AcDbVertex
100
AcDb2dVertex
 10
23697.139999999999
 20
9013.98
 30
0.0
 70
     0
 50
0.0
  0
VERTEX
  5
C1
100
AcDbEntity
  8
0
100
AcDbVertex
100
AcDb2dVertex
 10
23707.799999999999
 20
8983.92
 30
0.0
 70
     0
 50
0.0
  0
VERTEX
  5
C2
100
AcDbEntity
  8
0
100
AcDbVertex
100
AcDb2dVertex
 10
23705.169999999998
 20
8982.790000000001
 30
0.0
 70
     0
 50
0.0
  0
VERTEX
  5
C3
100
AcDbEntity
  8
0
100
AcDbVertex
100
AcDb2dVertex
 10
23692.869999999999
 20
8977.82
 30
0.0
 70
     0
 50
0.0
  0
VERTEX
  5
C4
100
AcDbEntity
  8
0
100
AcDbVertex
100
AcDb2dVertex
 10
23692.02
 20
8977.48
 30
0.0
 70
     0
 50
0.0
  0
VERTEX
  5
C5
100
AcDbEntity
  8
0
100
AcDbVertex
100
AcDb2dVertex
 10
23696.849999999999
 20
8964.51
 30
0.0
 70
     0
 50
0.0
  0
VERTEX
  5
C6
100
AcDbEntity
  8
0
100
AcDbVertex
100
AcDb2dVertex
 10
23709.529999999999
 20
8969.16
 30
0.0
 70
     0
 50
0.0
  0
VERTEX
  5
C7
100
AcDbEntity
  8
0
100
AcDbVertex
100
AcDb2dVertex
 10
23721.380000000001
 20
8932.09
 30
0.0
 70
     0
 50
0.0
  0
VERTEX
  5
C8
100
AcDbEntity
  8
0
100
AcDbVertex
100
AcDb2dVertex
 10
23719.439999999999
 20
8931.379999999999
 30
0.0
 70
     0
 50
0.0
  0
VERTEX
  5
C9
100
AcDbEntity
  8
0
100
AcDbVertex
100
AcDb2dVertex
 10
23579.18
 20
8881.67
 30
0.0
 70
     0
 50
0.0
  0
VERTEX
  5
CA
100
AcDbEntity
  8
0
100
AcDbVertex
100
AcDb2dVertex
 10
23568.119999999999
 20
8935.959999999999
 30
0.0
 70
     0
 50
0.0
  0
VERTEX
  5
CB
100
AcDbEntity
  8
0
100
AcDbVertex
100
AcDb2dVertex
 10
23565.73
 20
8947.709999999999
 30
0.0
 70
     0
 50
0.0
  0
VERTEX
  5
CC
100
AcDbEntity
  8
0
100
AcDbVertex
100
AcDb2dVertex
 10
23549.66
 20
8961.59
 30
0.0
 70
     0
 50
0.0
  0
VERTEX
  5
CD
100
AcDbEntity
  8
0
100
AcDbVertex
100
AcDb2dVertex
 10
23546.810000000001
 20
8964.059999999999
 30
0.0
 70
     0
 50
0.0
  0
VERTEX
  5
CE
100
AcDbEntity
  8
0
100
AcDbVertex
100
AcDb2dVertex
 10
23694.439999999999
 20
9016.379999999999
 30
0.0
 70
     0
 50
0.0
  0
SEQEND
  5
CF
100
AcDbEntity
  8
0
  0
TEXT
  5
D0
100
AcDbEntity
  8
77_03_0009007_1224 Parcel
 62
     8
100
AcDbText
 10
23634.095000000001
 20
8949.32
 30
0.0
 40
1.0
  1
77_03_0009007_1224 Parcel
100
AcDbText
  0
POLYLINE
  5
D1
100
AcDbEntity
  8
77_03_0009007_1225 Parcel
 62
     8
100
AcDb2dPolyline
 66
     1
 10
0.0
 20
0.0
 30
0.0
  0
VERTEX
  5
D2
100
AcDbEntity
  8
0
100
AcDbVertex
100
AcDb2dVertex
 10
23093.540000000001
 20
8793.969999999999
 30
0.0
 70
     0
 50
0.0
  0
VERTEX
  5
D3
100
AcDbEntity
  8
0
100
AcDbVertex
100
AcDb2dVertex
 10
23094.68
 20
8790.77
 30
0.0
 70
     0
 50
0.0
  0
VERTEX
  5
D4
100
AcDbEntity
  8
0
100
AcDbVertex
100
AcDb2dVertex
 10
23096.34
 20
8786.110000000001
 30
0.0
 70
     0
 50
0.0
  0
VERTEX
  5
D5
100
AcDbEntity
  8
0
100
AcDbVertex
100
AcDb2dVertex
 10
23085.73
 20
8782.389999999999
 30
0.0
 70
     0
 50
0.0
  0
VERTEX
  5
D6
100
AcDbEntity
  8
0
100
AcDbVertex
100
AcDb2dVertex
 10
23084.099999999999
 20
8787.02
 30
0.0
 70
     0
 50
0.0
  0
VERTEX
  5
D7
100
AcDbEntity
  8
0
100
AcDbVertex
100
AcDb2dVertex
 10
23083.869999999999
 20
8787.68
 30
0.0
 70
     0
 50
0.0
  0
VERTEX
  5
D8
100
AcDbEntity
  8
0
100
AcDbVertex
100
AcDb2dVertex
 10
23083.009999999998
 20
8790.15
 30
0.0
 70
     0
 50
0.0
  0
VERTEX
  5
D9
100
AcDbEntity
  8
0
100
AcDbVertex
100
AcDb2dVertex
 10
23093.540000000001
 20
8793.969999999999
 30
0.0
 70
     0
 50
0.0
  0
SEQEND
  5
DA
100
AcDbEntity
  8
0
  0
TEXT
  5
DB
100
AcDbEntity
  8
77_03_0009007_1225 Parcel
 62
     8
100
AcDbText
 10
23089.674999999999
 20
8788.18
 30
0.0
 40
1.0
  1
77_03_0009007_1225 Parcel
100
AcDbText
  0
POLYLINE
  5
DC
100
AcDbEntity
  8
77_03_0009007_1226 Parcel
 62
     8
100
AcDb2dPolyline
 66
     1
 10
0.0
 20
0.0
 30
0.0
  0
VERTEX
  5
DD
100
AcDbEntity
  8
0
100
AcDbVertex
100
AcDb2dVertex
 10
23147.77
 20
8815.219999999999
 30
0.0
 70
     0
 50
0.0
  0
VERTEX
  5
DE
100
AcDbEntity
  8
0
100
AcDbVertex
100
AcDb2dVertex
 10
23149.490000000002
 20
8810.18
 30
0.0
 70
     0
 50
0.0
  0
VERTEX
  5
DF
100
AcDbEntity
  8
0
100
AcDbVertex
100
AcDb2dVertex
 10
23150.189999999999
 20
8808.120000000001
 30
0.0
 70
     0
 50
0.0
  0
VERTEX
  5
E0
100
AcDbEntity
  8
0
100
AcDbVertex
100
AcDb2dVertex
 10
23140.599999999999
 20
8805.0
 30
0.0
 70
     0
 50
0.0
  0
VERTEX
  5
E1
100
AcDbEntity
  8
0
100
AcDbVertex
100
AcDb2dVertex
 10
23139.98
 20
8806.82
 30
0.0
 70
     0
 50
0.0
  0
VERTEX
  5
E2
100
AcDbEntity
  8
0
100
AcDbVertex
100
AcDb2dVertex
 10
23138.27
 20
8811.84
 30
0.0
 70
     0
 50
0.0
  0
VERTEX
  5
E3
100
AcDbEntity
  8
0
100
AcDbVertex
100
AcDb2dVertex
 10
23147.77
 20
8815.219999999999
 30
0.0
 70
     0
 50
0.0
  0
SEQEND
  5
E4
100
AcDbEntity
  8
0
  0
TEXT
  5
E5
100
AcDbEntity
  8
77_03_0009007_1226 Parcel
 62
     8
100
AcDbText
 10
23144.23
 20
8810.110000000001
 30
0.0
 40
1.0
  1
77_03_0009007_1226 Parcel
100
AcDbText
  0
POLYLINE
  5
E6
100
AcDbEntity
  8
77_03_0009007_1227 Parcel
 62
     8
100
AcDb2dPolyline
 66
     1
 10
0.0
 20
0.0
 30
0.0
  0
VERTEX
  5
E7
100
AcDbEntity
  8
0
100
AcDbVertex
100
AcDb2dVertex
 10
23074.970000000001
 20
8784.33
 30
0.0
 70
     0
 50
0.0
  0
VERTEX
  5
E8
100
AcDbEntity
  8
0
100
AcDbVertex
100
AcDb2dVertex
 10
23075.139999999999
 20
8783.84
 30
0.0
 70
     0
 50
0.0
  0
VERTEX
  5
E9
100
AcDbEntity
  8
0
100
AcDbVertex
100
AcDb2dVertex
 10
23076.330000000002
 20
8780.370000000001
 30
0.0
 70
     0
 50
0.0
  0
VERTEX
  5
EA
100
AcDbEntity
  8
0
100
AcDbVertex
100
AcDb2dVertex
 10
23076.75
 20
8779.139999999999
 30
0.0
 70
     0
 50
0.0
  0
VERTEX
  5
EB
100
AcDbEntity
  8
0
100
AcDbVertex
100
AcDb2dVertex
 10
23077.75
 20
8776.209999999999
 30
0.0
 70
     0
 50
0.0
  0
VERTEX
  5
EC
100
AcDbEntity
  8
0
100
AcDbVertex
100
AcDb2dVertex
 10
23076.34
 20
8775.719999999999
 30
0.0
 70
     0
 50
0.0
  0
VERTEX
  5
ED
100
AcDbEntity
  8
0
100
AcDbVertex
100
AcDb2dVertex
 10
23072.669999999998
 20
8774.43
 30
0.0
 70
     0
 50
0.0
  0
VERTEX
  5
EE
100
AcDbEntity
  8
0
100
AcDbVertex
100
AcDb2dVertex
 10
23069.93
 20
8782.0
 30
0.0
 70
     0
 50
0.0
  0
VERTEX
  5
EF
100
AcDbEntity
  8
0
100
AcDbVertex
100
AcDb2dVertex
 10
23069.77
 20
8782.450000000001
 30
0.0
 70
     0
 50
0.0
  0
VERTEX
  5
F0
100
AcDbEntity
  8
0
100
AcDbVertex
100
AcDb2dVertex
 10
23074.970000000001
 20
8784.33
 30
0.0
 70
     0
 50
0.0
  0
SEQEND
  5
F1
100
AcDbEntity
  8
0
  0
TEXT
  5
F2
100
AcDbEntity
  8
77_03_0009007_1227 Parcel
 62
     8
100
AcDbText
 10
23073.760000000002
 20
8779.380000000001
 30
0.0
 40
1.0
  1
77_03_0009007_1227 Parcel
100
AcDbText
  0
POLYLINE
  5
F3
100
AcDbEntity
  8
77_03_0009007_1228 Parcel
 62
     8
100
AcDb2dPolyline
 66
     1
 10
0.0
 20
0.0
 30
0.0
  0
VERTEX
  5
F4
100
AcDbEntity
  8
0
100
AcDbVertex
100
AcDb2dVertex
 10
23483.529999999999
 20
8904.360000000001
 30
0.0
 70
     0
 50
0.0
  0
VERTEX
  5
F5
100
AcDbEntity
  8
0
100
AcDbVertex
100
AcDb2dVertex
 10
23485.02
 20
8900.049999999999
 30
0.0
 70
     0
 50
0.0
  0
VERTEX
  5
F6
100
AcDbEntity
  8
0
100
AcDbVertex
100
AcDb2dVertex
 10
23476.25
 20
8896.719999999999
 30
0.0
 70
     0
 50
0.0
  0
VERTEX
  5
F7
100
AcDbEntity
  8
0
100
AcDbVertex
100
AcDb2dVertex
 10
23474.759999999998
 20
8901.030000000001
 30
0.0
 70
     0
 50
0.0
  0
VERTEX
  5
F8
100
AcDbEntity
  8
0
100
AcDbVertex
100
AcDb2dVertex
 10
23483.529999999999
 20
8904.360000000001
 30
0.0
 70
     0
 50
0.0
  0
SEQEND
  5
F9
100
AcDbEntity
  8
0
  0
TEXT
  5
FA
100
AcDbEntity
  8
77_03_0009007_1228 Parcel
 62
     8
100
AcDbText
 10
23479.889999999999
 20
8900.540000000001
 30
0.0
 40
1.0
  1
77_03_0009007_1228 Parcel
100
AcDbText
  0
POLYLINE
  5
FB
100
AcDbEntity
  8
77_03_0009007_1229 Parcel
 62
     8
100
AcDb2dPolyline
 66
     1
 10
0.0
 20
0.0
 30
0.0
  0
VERTEX
  5
FC
100
AcDbEntity
  8
0
100
AcDbVertex
100
AcDb2dVertex
 10
23518.889999999999
 20
8908.780000000001
 30
0.0
 70
     0
 50
0.0
  0
VERTEX
  5
FD
100
AcDbEntity
  8
0
100
AcDbVertex
100
AcDb2dVertex
 10
23520.060000000001
 20
8905.559999999999
 30
0.0
 70
     0
 50
0.0
  0
VERTEX
  5
FE
100
AcDbEntity
  8
0
100
AcDbVertex
100
AcDb2dVertex
 10
23522.200000000001
 20
8899.639999999999
 30
0.0
 70
     0
 50
0.0
  0
VERTEX
  5
FF
100
AcDbEntity
  8
0
100
AcDbVertex
100
AcDb2dVertex
 10
23516.529999999999
 20
8897.700000000001
 30
0.0
 70
     0
 50
0.0
  0
VERTEX
  5
100
100
AcDbEntity
  8
0
100
AcDbVertex
100
AcDb2dVertex
 10
23513.34
 20
8906.77
 30
0.0
 70
     0
 50
0.0
  0
VERTEX
  5
101
100
AcDbEntity
  8
0
100
AcDbVertex
100
AcDb2dVertex
 10
23518.889999999999
 20
8908.780000000001
 30
0.0
 70
     0
 50
0.0
  0
SEQEND
  5
102
100
AcDbEntity
  8
0
  0
TEXT
  5
103
100
AcDbEntity
  8
77_03_0009007_1229 Parcel
 62
     8
100
AcDbText
 10
23517.77
 20
8903.240000000002
 30
0.0
 40
1.0
  1
77_03_0009007_1229 Parcel
100
AcDbText
  0
POLYLINE
  5
104
100
AcDbEntity
  8
77_03_0009007_2 Parcel
 62
     8
100
AcDb2dPolyline
 66
     1
 10
0.0
 20
0.0
 30
0.0
  0
VERTEX
  5
105
100
AcDbEntity
  8
0
100
AcDbVertex
100
AcDb2dVertex
 10
24160.779999999999
 20
9176.26
 30
0.0
 70
     0
 50
0.0
  0
VERTEX
  5
106
100
AcDbEntity
  8
0
100
AcDbVertex
100
AcDb2dVertex
 10
24259.029999999999
 20
9140.18
 30
0.0
 70
     0
 50
0.0
  0
VERTEX
  5
107
100
AcDbEntity
  8
0
100
AcDbVertex
100
AcDb2dVertex
 10
24168.27
 20
9102.709999999999
 30
0.0
 70
     0
 50
0.0
  0
VERTEX
  5
108
100
AcDbEntity
  8
0
100
AcDbVertex
100
AcDb2dVertex
 10
24153.880000000001
 20
9138.17
 30
0.0
 70
     0
 50
0.0
  0
VERTEX
  5
109
100
AcDbEntity
  8
0
100
AcDbVertex
100
AcDb2dVertex
 10
24142.23
 20
9168.16
 30
0.0
 70
     0
 50
0.0
  0
VERTEX
  5
10A
100
AcDbEntity
  8
0
100
AcDbVertex
100
AcDb2dVertex
 10
24160.779999999999
 20
9176.26
 30
0.0
 70
     0
 50
0.0
  0
SEQEND
  5
10B
100
AcDbEntity
  8
0
  0
TEXT
  5
10C
100
AcDbEntity
  8
77_03_0009007_2 Parcel
 62
     8
100
AcDbText
 10
24200.629999999997
 20
9139.485000000001
 30
0.0
 40
1.0
  1
77_03_0009007_2 Parcel
100
AcDbText
  0
POLYLINE
  5
10D
100
AcDbEntity
  8
77_03_0009007_6 Parcel
 62
     8
100
AcDb2dPolyline
 66
     1
 10
0.0
 20
0.0
 30
0.0
  0
VERTEX
  5
10E
100
AcDbEntity
  8
0
100
AcDbVertex
100
AcDb2dVertex
 10
23697.139999999999
 20
9013.98
 30
0.0
 70
     0
 50
0.0
  0
VERTEX
  5
10F
100
AcDbEntity
  8
0
100
AcDbVertex
100
AcDb2dVertex
 10
23703.490000000002
 20
9016.110000000001
 30
0.0
 70
     0
 50
0.0
  0
VERTEX
  5
110
100
AcDbEntity
  8
0
100
AcDbVertex
100
AcDb2dVertex
 10
23715.540000000001
 20
8985.43
 30
0.0
 70
     0
 50
0.0
  0
VERTEX
  5
111
100
AcDbEntity
  8
0
100
AcDbVertex
100
AcDb2dVertex
 10
23692.869999999999
 20
8977.82
 30
0.0
 70
     0
 50
0.0
  0
VERTEX
  5
112
100
AcDbEntity
  8
0
100
AcDbVertex
100
AcDb2dVertex
 10
23692.02
 20
8977.48
 30
0.0
 70
     0
 50
0.0
  0
VERTEX
  5
113
100
AcDbEntity
  8
0
100
AcDbVertex
100
AcDb2dVertex
 10
23568.119999999999
 20
8935.959999999999
 30
0.0
 70
     0
 50
0.0
  0
VERTEX
  5
114
100
AcDbEntity
  8
0
100
AcDbVertex
100
AcDb2dVertex
 10
23559.259999999998
 20
8932.99
 30
0.0
 70
     0
 50
0.0
  0
VERTEX
  5
115
100
AcDbEntity
  8
0
100
AcDbVertex
100
AcDb2dVertex
 10
23549.66
 20
8961.59
 30
0.0
 70
     0
 50
0.0
  0
VERTEX
  5
116
100
AcDbEntity
  8
0
100
AcDbVertex
100
AcDb2dVertex
 10
23548.799999999999
 20
8964.17
 30
0.0
 70
     0
 50
0.0
  0
VERTEX
  5
117
100
AcDbEntity
  8
0
100
AcDbVertex
100
AcDb2dVertex
 10
23697.139999999999
 20
9013.98
 30
0.0
 70
     0
 50
0.0
  0
SEQEND
  5
118
100
AcDbEntity
  8
0
  0
TEXT
  5
119
100
AcDbEntity
  8
77_03_0009007_6 Parcel
 62
     8
100
AcDbText
 10
23632.169999999998
 20
8974.549999999999
 30
0.0
 40
1.0
  1
77_03_0009007_6 Parcel
100
AcDbText
  0
POLYLINE
  5
11A
100
AcDbEntity
  8
77_03_0009005_2298 Construction
 62
    63
100
AcDb2dPolyline
 66
     1
 10
0.0
 20
0.0
 30
0.0
  0
VERTEX
  5
11B
100
AcDbEntity
  8
0
100
AcDbVertex
100
AcDb2dVertex
 10
23012.040000000001
 20
8748.82
 30
0.0
 70
     0
 50
0.0
  0
VERTEX
  5
11C
100
AcDbEntity
  8
0
100
AcDbVertex
100
AcDb2dVertex
 10
22988.91
 20
8740.75
 30
0.0
 70
     0
 50
0.0
  0
VERTEX
  5
11D
100
AcDbEntity
  8
0
100
AcDbVertex
100
AcDb2dVertex
 10
22988.91
 20
8741.82
 30
0.0
 70
     0
 50
0.0
  0
VERTEX
  5
11E
100
AcDbEntity
  8
0
100
AcDbVertex
100
AcDb2dVertex
 10
22988.279999999999
 20
8742.75
 30
0.0
 70
     0
 50
0.0
  0
VERTEX
  5
11F
100
AcDbEntity
  8
0
100
AcDbVertex
100
AcDb2dVertex
 10
22987.27
 20
8743.129999999999
 30
0.0
 70
     0
 50
0.0
  0
VERTEX
  5
120
100
AcDbEntity
  8
0
100
AcDbVertex
100
AcDb2dVertex
 10
22963.939999999999
 20
8734.879999999999
 30
0.0
 70
     0
 50
0.0
  0
VERTEX
  5
121
100
AcDbEntity
  8
0
100
AcDbVertex
100
AcDb2dVertex
 10
22963.650000000001
 20
8734.42
 30
0.0
 70
     0
 50
0.0
  0
VERTEX
  5
122
100
AcDbEntity
  8
0
100
AcDbVertex
100
AcDb2dVertex
 10
22963.619999999999
 20
8733.48
 30
0.0
 70
     0
 50
0.0
  0
VERTEX
  5
123
100
AcDbEntity
  8
0
100
AcDbVertex
100
AcDb2dVertex
 10
22964.75
 20
8732.33
 30
0.0
 70
     0
 50
0.0
  0
VERTEX
  5
124
100
AcDbEntity
  8
0
100
AcDbVertex
100
AcDb2dVertex
 10
22958.380000000001
 20
8730.110000000001
 30
0.0
 70
     0
 50
0.0
  0
VERTEX
  5
125
100
AcDbEntity
  8
0
100
AcDbVertex
100
AcDb2dVertex
 10
22958.650000000001
 20
8729.33
 30
0.0
 70
     0
 50
0.0
  0
VERTEX
  5
126
100
AcDbEntity
  8
0
100
AcDbVertex
100
AcDb2dVertex
 10
22952.880000000001
 20
8726.950000000001
 30
0.0
 70
     0
 50
0.0
  0
VERTEX
  5
127
100
AcDbEntity
  8
0
100
AcDbVertex
100
AcDb2dVertex
 10
22952.389999999999
 20
8728.01
 30
0.0
 70
     0
 50
0.0
  0
VERTEX
  5
128
100
AcDbEntity
  8
0
100
AcDbVertex
100
AcDb2dVertex
 10
22944.490000000002
 20
8725.26
 30
0.0
 70
     0
 50
0.0
  0
VERTEX
  5
129
100
AcDbEntity
  8
0
100
AcDbVertex
100
AcDb2dVertex
 10
22962.290000000001
 20
8675.09
 30
0.0
 70
     0
 50
0.0
  0
VERTEX
  5
12A
100
AcDbEntity
  8
0
100
AcDbVertex
100
AcDb2dVertex
 10
23029.57
 20
8698.57
 30
0.0
 70
     0
 50
0.0
  0
VERTEX
  5
12B
100
AcDbEntity
  8
0
100
AcDbVertex
100
AcDb2dVertex
 10
23012.040000000001
 20
8748.82
 30
0.0
 70
     0
 50
0.0
  0
SEQEND
  5
12C
100
AcDbEntity
  8
0
  0
TEXT
  5
12D
100
AcDbEntity
  8
77_03_0009005_2298 Construction
 62
    63
100
AcDbText
 10
22987.029999999999
 20
8711.955
 30
0.0
 40
1.0
  1
77_03_0009005_2298 Construction
100
AcDbText
  0
POLYLINE
  5
12E
100
AcDbEntity
  8
77_03_0009007_1001 Building
 62
    63
100
AcDb2dPolyline
 66
     1
 10
0.0
 20
0.0
 30
0.0
  0
VERTEX
  5
12F
100
AcDbEntity
  8
0
100
AcDbVertex
100
AcDb2dVertex
 10
24060.700000000001
 20
9114.58
 30
0.0
 70
     0
 50
0.0
  0
VERTEX
  5
130
100
AcDbEntity
  8
0
100
AcDbVertex
100
AcDb2dVertex
 10
23742.130000000001
 20
8999.84
 30
0.0
 70
     0
 50
0.0
  0
VERTEX
  5
131
100
AcDbEntity
  8
0
100
AcDbVertex
100
AcDb2dVertex
 10
23744.290000000001
 20
8994.139999999999
 30
0.0
 70
     0
 50
0.0
  0
VERTEX
  5
132
100
AcDbEntity
  8
0
100
AcDbVertex
100
AcDb2dVertex
 10
24062.700000000001
 20
9108.889999999999
 30
0.0
 70
     0
 50
0.0
  0
VERTEX
  5
133
100
AcDbEntity
  8
0
100
AcDbVertex
100
AcDb2dVertex
 10
24060.700000000001
 20
9114.58
 30
0.0
 70
     0
 50
0.0
  0
SEQEND
  5
134
100
AcDbEntity
  8
0
  0
TEXT
  5
135
100
AcDbEntity
  8
77_03_0009007_1001 Building
 62
    63
100
AcDbText
 10
23902.415000000001
 20
9054.360000000001
 30
0.0
 40
1.0
  1
77_03_0009007_1001 Building
100
AcDbText
  0
POLYLINE
  5
136
100
AcDbEntity
  8
77_03_0009007_1002 Building
 62
    63
100
AcDb2dPolyline
 66
     1
 10
0.0
 20
0.0
 30
0.0
  0
VERTEX
  5
137
100
AcDbEntity
  8
0
100
AcDbVertex
100
AcDb2dVertex
 10
24030.18
 20
9129.040000000001
 30
0.0
 70
     0
 50
0.0
  0
VERTEX
  5
138
100
AcDbEntity
  8
0
100
AcDbVertex
100
AcDb2dVertex
 10
23735.110000000001
 20
9024.25
 30
0.0
 70
     0
 50
0.0
  0
VERTEX
  5
139
100
AcDbEntity
  8
0
100
AcDbVertex
100
AcDb2dVertex
 10
23737.16
 20
9018.15
 30
0.0
 70
     0
 50
0.0
  0
VERTEX
  5
13A
100
AcDbEntity
  8
0
100
AcDbVertex
100
AcDb2dVertex
 10
24032.380000000001
 20
9122.82
 30
0.0
 70
     0
 50
0.0
  0
VERTEX
  5
13B
100
AcDbEntity
  8
0
100
AcDbVertex
100
AcDb2dVertex
 10
24030.18
 20
9129.040000000001
 30
0.0
 70
     0
 50
0.0
  0
SEQEND
  5
13C
100
AcDbEntity
  8
0
  0
TEXT
  5
13D
100
AcDbEntity
  8
77_03_0009007_1002 Building
 62
    63
100
AcDbText
 10
23883.745000000003
 20
9073.595000000001
 30
0.0
 40
1.0
  1
77_03_0009007_1002 Building
100
AcDbText
  0
POLYLINE
  5
13E
100
AcDbEntity
  8
77_03_0009007_1003 Building
 62
    63
100
AcDb2dPolyline
 66
     1
 10
0.0
 20
0.0
 30
0.0
  0
VERTEX
  5
13F
100
AcDbEntity
  8
0
100
AcDbVertex
100
AcDb2dVertex
 10
23721.139999999999
 20
9012.360000000001
 30
0.0
 70
     0
 50
0.0
  0
VERTEX
  5
140
100
AcDbEntity
  8
0
100
AcDbVertex
100
AcDb2dVertex
 10
23724.169999999998
 20
9004.780000000001
 30
0.0
 70
     0
 50
0.0
  0
VERTEX
  5
141
100
AcDbEntity
  8
0
100
AcDbVertex
100
AcDb2dVertex
 10
23729.459999999999
 20
9006.639999999999
 30
0.0
 70
     0
 50
0.0
  0
VERTEX
  5
142
100
AcDbEntity
  8
0
100
AcDbVertex
100
AcDb2dVertex
 10
23727.849999999999
 20
9010.59
 30
0.0
 70
     0
 50
0.0
  0
VERTEX
  5
143
100
AcDbEntity
  8
0
100
AcDbVertex
100
AcDb2dVertex
 10
23729.25
 20
9011.15
 30
0.0
 70
     0
 50
0.0
  0
VERTEX
  5
144
100
AcDbEntity
  8
0
100
AcDbVertex
100
AcDb2dVertex
 10
23728.580000000002
 20
9012.74
 30
0.0
 70
     0
 50
0.0
  0
VERTEX
  5
145
100
AcDbEntity
  8
0
100
AcDbVertex
100
AcDb2dVertex
 10
23727.200000000001
 20
9012.219999999999
 30
0.0
 70
     0
 50
0.0
  0
VERTEX
  5
146
100
AcDbEntity
  8
0
100
AcDbVertex
100
AcDb2dVertex
 10
23726.34
 20
9014.219999999999
 30
0.0
 70
     0
 50
0.0
  0
VERTEX
  5
147
100
AcDbEntity
  8
0
100
AcDbVertex
100
AcDb2dVertex
 10
23721.139999999999
 20
9012.360000000001
 30
0.0
 70
     0
 50
0.0
  0
SEQEND
  5
148
100
AcDbEntity
  8
0
  0
TEXT
  5
149
100
AcDbEntity
  8
77_03_0009007_1003 Building
 62
    63
100
AcDbText
 10
23725.299999999999
 20
9009.5
 30
0.0
 40
1.0
  1
77_03_0009007_1003 Building
100
AcDbText
  0
POLYLINE
  5
14A
100
AcDbEntity
  8
77_03_0009007_1004 Building
 62
    63
100
AcDb2dPolyline
 66
     1
 10
0.0
 20
0.0
 30
0.0
  0
VERTEX
  5
14B
100
AcDbEntity
  8
0
100
AcDbVertex
100
AcDb2dVertex
 10
23742.630000000001
 20
8993.25
 30
0.0
 70
     0
 50
0.0
  0
VERTEX
  5
14C
100
AcDbEntity
  8
0
100
AcDbVertex
100
AcDb2dVertex
 10
23740.990000000002
 20
8997.610000000001
 30
0.0
 70
     0
 50
0.0
  0
VERTEX
  5
14D
100
AcDbEntity
  8
0
100
AcDbVertex
100
AcDb2dVertex
 10
23737.490000000002
 20
8996.27
 30
0.0
 70
     0
 50
0.0
  0
VERTEX
  5
14E
100
AcDbEntity
  8
0
100
AcDbVertex
100
AcDb2dVertex
 10
23736.91
 20
8997.5
 30
0.0
 70
     0
 50
0.0
  0
VERTEX
  5
14F
100
AcDbEntity
  8
0
100
AcDbVertex
100
AcDb2dVertex
 10
23735.360000000001
 20
8996.860000000001
 30
0.0
 70
     0
 50
0.0
  0
VERTEX
  5
150
100
AcDbEntity
  8
0
100
AcDbVertex
100
AcDb2dVertex
 10
23735.779999999999
 20
8995.629999999999
 30
0.0
 70
     0
 50
0.0
  0
VERTEX
  5
151
100
AcDbEntity
  8
0
100
AcDbVertex
100
AcDb2dVertex
 10
23732.889999999999
 20
8994.559999999999
 30
0.0
 70
     0
 50
0.0
  0
VERTEX
  5
152
100
AcDbEntity
  8
0
100
AcDbVertex
100
AcDb2dVertex
 10
23734.669999999998
 20
8990.209999999999
 30
0.0
 70
     0
 50
0.0
  0
VERTEX
  5
153
100
AcDbEntity
  8
0
100
AcDbVertex
100
AcDb2dVertex
 10
23742.630000000001
 20
8993.25
 30
0.0
 70
     0
 50
0.0
  0
SEQEND
  5
154
100
AcDbEntity
  8
0
  0
TEXT
  5
155
100
AcDbEntity
  8
77_03_0009007_1004 Building
 62
    63
100
AcDbText
 10
23737.760000000002
 20
8993.91
 30
0.0
 40
1.0
  1
77_03_0009007_1004 Building
100
AcDbText
  0
POLYLINE
  5
156
100
AcDbEntity
  8
77_03_0009007_1223 Construction
 62
    63
100
AcDb2dPolyline
 66
     1
 10
0.0
 20
0.0
 30
0.0
  0
VERTEX
  5
157
100
AcDbEntity
  8
0
100
AcDbVertex
100
AcDb2dVertex
 10
22961.880000000001
 20
8702.82
 30
0.0
 70
     0
 50
0.0
  0
VERTEX
  5
158
100
AcDbEntity
  8
0
100
AcDbVertex
100
AcDb2dVertex
 10
22959.799999999999
 20
8706.110000000001
 30
0.0
 70
     0
 50
0.0
  0
VERTEX
  5
159
100
AcDbEntity
  8
0
100
AcDbVertex
100
AcDb2dVertex
 10
22982.970000000001
 20
8713.860000000001
 30
0.0
 70
     0
 50
0.0
  0
VERTEX
  5
15A
100
AcDbEntity
  8
0
100
AcDbVertex
100
AcDb2dVertex
 10
22995.110000000001
 20
8717.959999999999
 30
0.0
 70
     0
 50
0.0
  0
VERTEX
  5
15B
100
AcDbEntity
  8
0
100
AcDbVertex
100
AcDb2dVertex
 10
23011.5
 20
8724.18
 30
0.0
 70
     0
 50
0.0
  0
SEQEND
  5
15C
100
AcDbEntity
  8
0
  0
POLYLINE
  5
15D
100
AcDbEntity
  8
77_03_0009007_1223 Construction
 62
    63
100
AcDb2dPolyline
 66
     1
 10
0.0
 20
0.0
 30
0.0
  0
VERTEX
  5
15E
100
AcDbEntity
  8
0
100
AcDbVertex
100
AcDb2dVertex
 10
22995.110000000001
 20
8717.959999999999
 30
0.0
 70
     0
 50
0.0
  0
VERTEX
  5
15F
100
AcDbEntity
  8
0
100
AcDbVertex
100
AcDb2dVertex
 10
22988.330000000002
 20
8738.23
 30
0.0
 70
     0
 50
0.0
  0
SEQEND
  5
160
100
AcDbEntity
  8
0
  0
POLYLINE
  5
161
100
AcDbEntity
  8
77_03_0009007_1223 Construction
 62
    63
100
AcDb2dPolyline
 66
     1
 10
0.0
 20
0.0
 30
0.0
  0
VERTEX
  5
162
100
AcDbEntity
  8
0
100
AcDbVertex
100
AcDb2dVertex
 10
23005.310000000001
 20
8727.389999999999
 30
0.0
 70
     0
 50
0.0
  0
VERTEX
  5
163
100
AcDbEntity
  8
0
100
AcDbVertex
100
AcDb2dVertex
 10
23011.5
 20
8724.18
 30
0.0
 70
     0
 50
0.0
  0
VERTEX
  5
164
100
AcDbEntity
  8
0
100
AcDbVertex
100
AcDb2dVertex
 10
23012.830000000002
 20
8720.860000000001
 30
0.0
 70
     0
 50
0.0
  0
VERTEX
  5
165
100
AcDbEntity
  8
0
100
AcDbVertex
100
AcDb2dVertex
 10
23015.369999999999
 20
8712.02
 30
0.0
 70
     0
 50
0.0
  0
VERTEX
  5
166
100
AcDbEntity
  8
0
100
AcDbVertex
100
AcDb2dVertex
 10
23013.27
 20
8711.459999999999
 30
0.0
 70
     0
 50
0.0
  0
VERTEX
  5
167
100
AcDbEntity
  8
0
100
AcDbVertex
100
AcDb2dVertex
 10
23017.580000000002
 20
8699.52
 30
0.0
 70
     0
 50
0.0
  0
VERTEX
  5
168
100
AcDbEntity
  8
0
100
AcDbVertex
100
AcDb2dVertex
 10
23019.68
 20
8694.549999999999
 30
0.0
 70
     0
 50
0.0
  0
VERTEX
  5
169
100
AcDbEntity
  8
0
100
AcDbVertex
100
AcDb2dVertex
 10
23024.759999999998
 20
8690.379999999999
 30
0.0
 70
     0
 50
0.0
  0
SEQEND
  5
16A
100
AcDbEntity
  8
0
  0
POLYLINE
  5
16B
100
AcDbEntity
  8
77_03_0009007_1223 Construction
 62
    63
100
AcDb2dPolyline
 66
     1
 10
0.0
 20
0.0
 30
0.0
  0
VERTEX
  5
16C
100
AcDbEntity
  8
0
100
AcDbVertex
100
AcDb2dVertex
 10
23012.830000000002
 20
8720.860000000001
 30
0.0
 70
     0
 50
0.0
  0
VERTEX
  5
16D
100
AcDbEntity
  8
0
100
AcDbVertex
100
AcDb2dVertex
 10
23007.52
 20
8715.26
 30
0.0
 70
     0
 50
0.0
  0
SEQEND
  5
16E
100
AcDbEntity
  8
0
  0
POLYLINE
  5
16F
100
AcDbEntity
  8
77_03_0009007_1223 Construction
 62
    63
100
AcDb2dPolyline
 66
     1
 10
0.0
 20
0.0
 30
0.0
  0
VERTEX
  5
170
100
AcDbEntity
  8
0
100
AcDbVertex
100
AcDb2dVertex
 10
23002.169999999998
 20
8677.790000000001
 30
0.0
 70
     0
 50
0.0
  0
VERTEX
  5
171
100
AcDbEntity
  8
0
100
AcDbVertex
100
AcDb2dVertex
 10
22991.830000000002
 20
8675.68
 30
0.0
 70
     0
 50
0.0
  0
VERTEX
  5
172
100
AcDbEntity
  8
0
100
AcDbVertex
100
AcDb2dVertex
 10
22973.93
 20
8669.559999999999
 30
0.0
 70
     0
 50
0.0
  0
VERTEX
  5
173
100
AcDbEntity
  8
0
100
AcDbVertex
100
AcDb2dVertex
 10
22964.119999999999
 20
8694.690000000001
 30
0.0
 70
     0
 50
0.0
  0
VERTEX
  5
174
100
AcDbEntity
  8
0
100
AcDbVertex
100
AcDb2dVertex
 10
22959.799999999999
 20
8706.110000000001
 30
0.0
 70
     0
 50
0.0
  0
SEQEND
  5
175
100
AcDbEntity
  8
0
  0
CIRCLE
  5
176
100
AcDbEntity
  8
77_03_0009007_1223 Construction
 62
    63
100
AcDbCircle
 10
22961.880000000001
 20
8702.82
 30
0.0
 40
0.4
  0
CIRCLE
  5
177
100
AcDbEntity
  8
77_03_0009007_1223 Construction
 62
    63
100
AcDbCircle
 10
22959.799999999999
 20
8706.110000000001
 30
0.0
 40
0.4
  0
CIRCLE
  5
178
100
AcDbEntity
  8
77_03_0009007_1223 Construction
 62
    63
100
AcDbCircle
 10
22982.970000000001
 20
8713.860000000001
 30
0.0
 40
0.4
  0
CIRCLE
  5
179
100
AcDbEntity
  8
77_03_0009007_1223 Construction
 62
    63
100
AcDbCircle
 10
22995.119999999999
 20
8717.93
 30
0.0
 40
0.4
  0
CIRCLE
  5
17A
100
AcDbEntity
  8
77_03_0009007_1223 Construction
 62
    63
100
AcDbCircle
 10
23011.5
 20
8724.18
 30
0.0
 40
0.4
  0
CIRCLE
  5
17B
100
AcDbEntity
  8
77_03_0009007_1223 Construction
 62
    63
100
AcDbCircle
 10
22988.330000000002
 20
8738.23
 30
0.0
 40
0.4
  0
CIRCLE
  5
17C
100
AcDbEntity
  8
77_03_0009007_1223 Construction
 62
    63
100
AcDbCircle
 10
23005.310000000001
 20
8727.389999999999
 30
0.0
 40
0.4
  0
CIRCLE
  5
17D
100
AcDbEntity
  8
77_03_0009007_1223 Construction
 62
    63
100
AcDbCircle
 10
23012.830000000002
 20
8720.860000000001
 30
0.0
 40
0.4
  0
CIRCLE
  5
17E
100
AcDbEntity
  8
77_03_0009007_1223 Construction
 62
    63
100
AcDbCircle
 10
23015.369999999999
 20
8712.02
 30
0.0
 40
0.4
  0
CIRCLE
  5
17F
100
AcDbEntity
  8
77_03_0009007_1223 Construction
 62
    63
100
AcDbCircle
 10
23013.27
 20
8711.459999999999
 30
0.0
 40
0.4
  0
CIRCLE
  5
180
100
AcDbEntity
  8
77_03_0009007_1223 Construction
 62
    63
100
AcDbCircle
 10
23017.580000000002
 20
8699.52
 30
0.0
 40
0.4
  0
CIRCLE
  5
181
100
AcDbEntity
  8
77_03_0009007_1223 Construction
 62
    63
100
AcDbCircle
 10
23019.68
 20
8694.549999999999
 30
0.0
 40
0.4
  0
CIRCLE
  5
182
100
AcDbEntity
  8
77_03_0009007_1223 Construction
 62
    63
100
AcDbCircle
 10
23024.759999999998
 20
8690.379999999999
 30
0.0
 40
0.4
  0
CIRCLE
  5
183
100
AcDbEntity
  8
77_03_0009007_1223 Construction
 62
    63
100
AcDbCircle
 10
23007.52
 20
8715.26
 30
0.0
 40
0.4
  0
CIRCLE
  5
184
100
AcDbEntity
  8
77_03_0009007_1223 Construction
 62
    63
100
AcDbCircle
 10
23002.169999999998
 20
8677.790000000001
 30
0.0
 40
0.4
  0
CIRCLE
  5
185
100
AcDbEntity
  8
77_03_0009007_1223 Construction
 62
    63
100
AcDbCircle
 10
22991.830000000002
 20
8675.68
 30
0.0
 40
0.4
  0
CIRCLE
  5
186
100
AcDbEntity
  8
77_03_0009007_1223 Construction
 62
    63
100
AcDbCircle
 10
22973.93
 20
8669.559999999999
 30
0.0
 40
0.4
  0
CIRCLE
  5
187
100
AcDbEntity
  8
77_03_0009007_1223 Construction
 62
    63
100
AcDbCircle
 10
22964.119999999999
 20
8694.690000000001
 30
0.0
 40
0.4
  0
TEXT
  5
188
100
AcDbEntity
  8
77_03_0009007_1223 Construction
 62
    63
100
AcDbText
 10
22992.279999999999
 20
8703.895
 30
0.0
 40
1.0
  1
77_03_0009007_1223 Construction
100
AcDbText
  0
POLYLINE
  5
189
100
AcDbEntity
  8
77_03_0009007_1230 Construction
 62
    63
100
AcDb2dPolyline
 66
     1
 10
0.0
 20
0.0
 30
0.0
  0
VERTEX
  5
18A
100
AcDbEntity
  8
0
100
AcDbVertex
100
AcDb2dVertex
 10
24178.279999999999
 20
9217.860000000001
 30
0.0
 70
     0
 50
0.0
  0
VERTEX
  5
18B
100
AcDbEntity
  8
0
100
AcDbVertex
100
AcDb2dVertex
 10
24108.34
 20
9191.41
 30
0.0
 70
     0
 50
0.0
  0
VERTEX
  5
18C
100
AcDbEntity
  8
0
100
AcDbVertex
100
AcDb2dVertex
 10
24000.57
 20
9154.67
 30
0.0
 70
     0
 50
0.0
  0
VERTEX
  5
18D
100
AcDbEntity
  8
0
100
AcDbVertex
100
AcDb2dVertex
 10
23915.32
 20
9124.91
 30
0.0
 70
     0
 50
0.0
  0
VERTEX
  5
18E
100
AcDbEntity
  8
0
100
AcDbVertex
100
AcDb2dVertex
 10
23869.669999999998
 20
9109.889999999999
 30
0.0
 70
     0
 50
0.0
  0
VERTEX
  5
18F
100
AcDbEntity
  8
0
100
AcDbVertex
100
AcDb2dVertex
 10
23757.779999999999
 20
9069.59
 30
0.0
 70
     0
 50
0.0
  0
VERTEX
  5
190
100
AcDbEntity
  8
0
100
AcDbVertex
100
AcDb2dVertex
 10
23626.52
 20
9022.91
 30
0.0
 70
     0
 50
0.0
  0
VERTEX
  5
191
100
AcDbEntity
  8
0
100
AcDbVertex
100
AcDb2dVertex
 10
23582.200000000001
 20
9007.360000000001
 30
0.0
 70
     0
 50
0.0
  0
VERTEX
  5
192
100
AcDbEntity
  8
0
100
AcDbVertex
100
AcDb2dVertex
 10
23534.439999999999
 20
8990.91
 30
0.0
 70
     0
 50
0.0
  0
VERTEX
  5
193
100
AcDbEntity
  8
0
100
AcDbVertex
100
AcDb2dVertex
 10
23405.279999999999
 20
8944.809999999999
 30
0.0
 70
     0
 50
0.0
  0
VERTEX
  5
194
100
AcDbEntity
  8
0
100
AcDbVertex
100
AcDb2dVertex
 10
23295.630000000001
 20
8905.379999999999
 30
0.0
 70
     0
 50
0.0
  0
VERTEX
  5
195
100
AcDbEntity
  8
0
100
AcDbVertex
100
AcDb2dVertex
 10
23250.060000000001
 20
8889.09
 30
0.0
 70
     0
 50
0.0
  0
VERTEX
  5
196
100
AcDbEntity
  8
0
100
AcDbVertex
100
AcDb2dVertex
 10
23174.669999999998
 20
8862.49
 30
0.0
 70
     0
 50
0.0
  0
VERTEX
  5
197
100
AcDbEntity
  8
0
100
AcDbVertex
100
AcDb2dVertex
 10
23070.599999999999
 20
8826.190000000001
 30
0.0
 70
     0
 50
0.0
  0
VERTEX
  5
198
100
AcDbEntity
  8
0
100
AcDbVertex
100
AcDb2dVertex
 10
22947.119999999999
 20
8782.35
 30
0.0
 70
     0
 50
0.0
  0
SEQEND
  5
199
100
AcDbEntity
  8
0
  0
CIRCLE
  5
19A
100
AcDbEntity
  8
77_03_0009007_1230 Construction
 62
    63
100
AcDbCircle
 10
22947.119999999999
 20
8782.35
 30
0.0
 40
0.5
  0
CIRCLE
  5
19B
100
AcDbEntity
  8
77_03_0009007_1230 Construction
 62
    63
100
AcDbCircle
 10
23070.599999999999
 20
8826.190000000001
 30
0.0
 40
0.5
  0
CIRCLE
  5
19C
100
AcDbEntity
  8
77_03_0009007_1230 Construction
 62
    63
100
AcDbCircle
 10
23174.669999999998
 20
8862.49
 30
0.0
 40
0.5
  0
CIRCLE
  5
19D
100
AcDbEntity
  8
77_03_0009007_1230 Construction
 62
    63
100
AcDbCircle
 10
23295.630000000001
 20
8905.379999999999
 30
0.0
 40
0.5
  0
CIRCLE
  5
19E
100
AcDbEntity
  8
77_03_0009007_1230 Construction
 62
    63
100
AcDbCircle
 10
23405.279999999999
 20
8944.809999999999
 30
0.0
 40
0.5
  0
CIRCLE
  5
19F
100
AcDbEntity
  8
77_03_0009007_1230 Construction
 62
    63
100
AcDbCircle
 10
23534.439999999999
 20
8990.91
 30
0.0
 40
0.5
  0
CIRCLE
  5
1A0
100
AcDbEntity
  8
77_03_0009007_1230 Construction
 62
    63
100
AcDbCircle
 10
23582.200000000001
 20
9007.360000000001
 30
0.0
 40
0.5
  0
CIRCLE
  5
1A1
100
AcDbEntity
  8
77_03_0009007_1230 Construction
 62
    63
100
AcDbCircle
 10
23626.52
 20
9022.91
 30
0.0
 40
0.5
  0
CIRCLE
  5
1A2
100
AcDbEntity
  8
77_03_0009007_1230 Construction
 62
    63
100
AcDbCircle
 10
23757.779999999999
 20
9069.59
 30
0.0
 40
0.5
  0
CIRCLE
  5
1A3
100
AcDbEntity
  8
77_03_0009007_1230 Construction
 62
    63
100
AcDbCircle
 10
23869.669999999998
 20
9109.889999999999
 30
0.0
 40
0.5
  0
CIRCLE
  5
1A4
100
AcDbEntity
  8
77_03_0009007_1230 Construction
 62
    63
100
AcDbCircle
 10
24000.57
 20
9154.67
 30
0.0
 40
0.5
  0
CIRCLE
  5
1A5
100
AcDbEntity
  8
77_03_0009007_1230 Construction
 62
    63
100
AcDbCircle
 10
24108.34
 20
9191.41
 30
0.0
 40
0.5
  0
CIRCLE
  5
1A6
100
AcDbEntity
  8
77_03_0009007_1230 Construction
 62
    63
100
AcDbCircle
 10
24178.279999999999
 20
9217.860000000001
 30
0.0
 40
0.5
  0
TEXT
  5
1A7
100
AcDbEntity
  8
77_03_0009007_1230 Construction
 62
    63
100
AcDbText
 10
23562.699999999997
 20
9000.105
 30
0.0
 40
1.0
  1
77_03_0009007_1230 Construction
100
AcDbText
  0
POLYLINE
  5
1A8
100
AcDbEntity
  8
77_03_0009007 CadastralBlock
 62
     7
100
AcDb2dPolyline
 66
     1
 10
0.0
 20
0.0
 30
0.0
  0
VERTEX
  5
1A9
100
AcDbEntity
  8
0
100
AcDbVertex
100
AcDb2dVertex
 10
24137.41
 20
9233.35
 30
0.0
 70
     0
 50
0.0
  0
VERTEX
  5
1AA
100
AcDbEntity
  8
0
100
AcDbVertex
100
AcDb2dVertex
 10
24137.209999999999
 20
9233.389999999999
 30
0.0
 70
     0
 50
0.0
  0
VERTEX
  5
1AB
100
AcDbEntity
  8
0
100
AcDbVertex
100
AcDb2dVertex
 10
24135.75
 20
9232.91
 30
0.0
 70
     0
 50
0.0
  0
VERTEX
  5
1AC
100
AcDbEntity
  8
0
100
AcDbVertex
100
AcDb2dVertex
 10
24121.110000000001
 20
9227.709999999999
 30
0.0
 70
     0
 50
0.0
  0
VERTEX
  5
1AD
100
AcDbEntity
  8
0
100
AcDbVertex
100
AcDb2dVertex
 10
24107.93
 20
9223.01
 30
0.0
 70
     0
 50
0.0
  0
VERTEX
  5
1AE
100
AcDbEntity
  8
0
100
AcDbVertex
100
AcDb2dVertex
 10
24099.009999999998
 20
9219.91
 30
0.0
 70
     0
 50
0.0
  0
VERTEX
  5
1AF
100
AcDbEntity
  8
0
100
AcDbVertex
100
AcDb2dVertex
 10
24098.73
 20
9220.629999999999
 30
0.0
 70
     0
 50
0.0
  0
VERTEX
  5
1B0
100
AcDbEntity
  8
0
100
AcDbVertex
100
AcDb2dVertex
 10
24018.25
 20
9191.27
 30
0.0
 70
     0
 50
0.0
  0
VERTEX
  5
1B1
100
AcDbEntity
  8
0
100
AcDbVertex
100
AcDb2dVertex
 10
23946.330000000002
 20
9165.030000000001
 30
0.0
 70
     0
 50
0.0
  0
VERTEX
  5
1B2
100
AcDbEntity
  8
0
100
AcDbVertex
100
AcDb2dVertex
 10
23830.009999999998
 20
9124.389999999999
 30
0.0
 70
     0
 50
0.0
  0
VERTEX
  5
1B3
100
AcDbEntity
  8
0
100
AcDbVertex
100
AcDb2dVertex
 10
23578.310000000001
 20
9036.43
 30
0.0
 70
     0
 50
0.0
  0
VERTEX
  5
1B4
100
AcDbEntity
  8
0
100
AcDbVertex
100
AcDb2dVertex
 10
23578.110000000001
 20
9032.870000000001
 30
0.0
 70
     0
 50
0.0
  0
VERTEX
  5
1B5
100
AcDbEntity
  8
0
100
AcDbVertex
100
AcDb2dVertex
 10
23568.91
 20
9029.709999999999
 30
0.0
 70
     0
 50
0.0
  0
VERTEX
  5
1B6
100
AcDbEntity
  8
0
100
AcDbVertex
100
AcDb2dVertex
 10
23551.169999999998
 20
9023.59
 30
0.0
 70
     0
 50
0.0
  0
VERTEX
  5
1B7
100
AcDbEntity
  8
0
100
AcDbVertex
100
AcDb2dVertex
 10
23550.450000000001
 20
9025.370000000001
 30
0.0
 70
     0
 50
0.0
  0
VERTEX
  5
1B8
100
AcDbEntity
  8
0
100
AcDbVertex
100
AcDb2dVertex
 10
23544.09
 20
9023.690000000001
 30
0.0
 70
     0
 50
0.0
  0
VERTEX
  5
1B9
100
AcDbEntity
  8
0
100
AcDbVertex
100
AcDb2dVertex
 10
23519.389999999999
 20
9014.99
 30
0.0
 70
     0
 50
0.0
  0
VERTEX
  5
1BA
100
AcDbEntity
  8
0
100
AcDbVertex
100
AcDb2dVertex
 10
23510.169999999998
 20
9011.49
 30
0.0
 70
     0
 50
0.0
  0
VERTEX
  5
1BB
100
AcDbEntity
  8
0
100
AcDbVertex
100
AcDb2dVertex
 10
23502.869999999999
 20
9008.25
 30
0.0
 70
     0
 50
0.0
  0
VERTEX
  5
1BC
100
AcDbEntity
  8
0
100
AcDbVertex
100
AcDb2dVertex
 10
23459.470000000001
 20
8992.790000000001
 30
0.0
 70
     0
 50
0.0
  0
VERTEX
  5
1BD
100
AcDbEntity
  8
0
100
AcDbVertex
100
AcDb2dVertex
 10
23458.869999999999
 20
8994.450000000001
 30
0.0
 70
     0
 50
0.0
  0
VERTEX
  5
1BE
100
AcDbEntity
  8
0
100
AcDbVertex
100
AcDb2dVertex
 10
23019.549999999999
 20
8839.15
 30
0.0
 70
     0
 50
0.0
  0
VERTEX
  5
1BF
100
AcDbEntity
  8
0
100
AcDbVertex
100
AcDb2dVertex
 10
23012.75
 20
8837.43
 30
0.0
 70
     0
 50
0.0
  0
VERTEX
  5
1C0
100
AcDbEntity
  8
0
100
AcDbVertex
100
AcDb2dVertex
 10
22910.57
 20
8811.59
 30
0.0
 70
     0
 50
0.0
  0
VERTEX
  5
1C1
100
AcDbEntity
  8
0
100
AcDbVertex
100
AcDb2dVertex
 10
22911.330000000002
 20
8799.75
 30
0.0
 70
     0
 50
0.0
  0
VERTEX
  5
1C2
100
AcDbEntity
  8
0
100
AcDbVertex
100
AcDb2dVertex
 10
22919.110000000001
 20
8781.07
 30
0.0
 70
     0
 50
0.0
  0
VERTEX
  5
1C3
100
AcDbEntity
  8
0
100
AcDbVertex
100
AcDb2dVertex
 10
22964.150000000001
 20
8652.370000000001
 30
0.0
 70
     0
 50
0.0
  0
VERTEX
  5
1C4
100
AcDbEntity
  8
0
100
AcDbVertex
100
AcDb2dVertex
 10
23033.689999999999
 20
8676.99
 30
0.0
 70
     0
 50
0.0
  0
VERTEX
  5
1C5
100
AcDbEntity
  8
0
100
AcDbVertex
100
AcDb2dVertex
 10
23061.970000000001
 20
8685.23
 30
0.0
 70
     0
 50
0.0
  0
VERTEX
  5
1C6
100
AcDbEntity
  8
0
100
AcDbVertex
100
AcDb2dVertex
 10
23161.27
 20
8720.389999999999
 30
0.0
 70
     0
 50
0.0
  0
VERTEX
  5
1C7
100
AcDbEntity
  8
0
100
AcDbVertex
100
AcDb2dVertex
 10
23274.369999999999
 20
8760.629999999999
 30
0.0
 70
     0
 50
0.0
  0
VERTEX
  5
1C8
100
AcDbEntity
  8
0
100
AcDbVertex
100
AcDb2dVertex
 10
23336.669999999998
 20
8783.110000000001
 30
0.0
 70
     0
 50
0.0
  0
VERTEX
  5
1C9
100
AcDbEntity
  8
0
100
AcDbVertex
100
AcDb2dVertex
 10
23464.130000000001
 20
8826.950000000001
 30
0.0
 70
     0
 50
0.0
  0
VERTEX
  5
1CA
100
AcDbEntity
  8
0
100
AcDbVertex
100
AcDb2dVertex
 10
23632.43
 20
8886.790000000001
 30
0.0
 70
     0
 50
0.0
  0
VERTEX
  5
1CB
100
AcDbEntity
  8
0
100
AcDbVertex
100
AcDb2dVertex
 10
23680.669999999998
 20
8904.43
 30
0.0
 70
     0
 50
0.0
  0
VERTEX
  5
1CC
100
AcDbEntity
  8
0
100
AcDbVertex
100
AcDb2dVertex
 10
23824.27
 20
8954.809999999999
 30
0.0
 70
     0
 50
0.0
  0
VERTEX
  5
1CD
100
AcDbEntity
  8
0
100
AcDbVertex
100
AcDb2dVertex
 10
23837.029999999999
 20
8958.389999999999
 30
0.0
 70
     0
 50
0.0
  0
VERTEX
  5
1CE
100
AcDbEntity
  8
0
100
AcDbVertex
100
AcDb2dVertex
 10
23845.709999999999
 20
8956.35
 30
0.0
 70
     0
 50
0.0
  0
VERTEX
  5
1CF
100
AcDbEntity
  8
0
100
AcDbVertex
100
AcDb2dVertex
 10
23851.470000000001
 20
8958.65
 30
0.0
 70
     0
 50
0.0
  0
VERTEX
  5
1D0
100
AcDbEntity
  8
0
100
AcDbVertex
100
AcDb2dVertex
 10
23963.790000000001
 20
8999.469999999999
 30
0.0
 70
     0
 50
0.0
  0
VERTEX
  5
1D1
100
AcDbEntity
  8
0
100
AcDbVertex
100
AcDb2dVertex
 10
24071.25
 20
9041.870000000001
 30
0.0
 70
     0
 50
0.0
  0
VERTEX
  5
1D2
100
AcDbEntity
  8
0
100
AcDbVertex
100
AcDb2dVertex
 10
24154.450000000001
 20
9077.110000000001
 30
0.0
 70
     0
 50
0.0
  0
VERTEX
  5
1D3
100
AcDbEntity
  8
0
100
AcDbVertex
100
AcDb2dVertex
 10
24232.810000000001
 20
9113.950000000001
 30
0.0
 70
     0
 50
0.0
  0
VERTEX
  5
1D4
100
AcDbEntity
  8
0
100
AcDbVertex
100
AcDb2dVertex
 10
24252.389999999999
 20
9124.15
 30
0.0
 70
     0
 50
0.0
  0
VERTEX
  5
1D5
100
AcDbEntity
  8
0
100
AcDbVertex
100
AcDb2dVertex
 10
24271.950000000001
 20
9134.33
 30
0.0
 70
     0
 50
0.0
  0
VERTEX
  5
1D6
100
AcDbEntity
  8
0
100
AcDbVertex
100
AcDb2dVertex
 10
24303.75
 20
9151.75
 30
0.0
 70
     0
 50
0.0
  0
VERTEX
  5
1D7
100
AcDbEntity
  8
0
100
AcDbVertex
100
AcDb2dVertex
 10
24320.709999999999
 20
9160.969999999999
 30
0.0
 70
     0
 50
0.0
  0
VERTEX
  5
1D8
100
AcDbEntity
  8
0
100
AcDbVertex
100
AcDb2dVertex
 10
24333.209999999999
 20
9169.530000000001
 30
0.0
 70
     0
 50
0.0
  0
VERTEX
  5
1D9
100
AcDbEntity
  8
0
100
AcDbVertex
100
AcDb2dVertex
 10
24316.529999999999
 20
9174.73
 30
0.0
 70
     0
 50
0.0
  0
VERTEX
  5
1DA
100
AcDbEntity
  8
0
100
AcDbVertex
100
AcDb2dVertex
 10
24315.529999999999
 20
9173.25
 30
0.0
 70
     0
 50
0.0
  0
VERTEX
  5
1DB
100
AcDbEntity
  8
0
100
AcDbVertex
100
AcDb2dVertex
 10
24284.43
 20
9182.530000000001
 30
0.0
 70
     0
 50
0.0
  0
VERTEX
  5
1DC
100
AcDbEntity
  8
0
100
AcDbVertex
100
AcDb2dVertex
 10
24284.91
 20
9186.17
 30
0.0
 70
     0
 50
0.0
  0
VERTEX
  5
1DD
100
AcDbEntity
  8
0
100
AcDbVertex
100
AcDb2dVertex
 10
24281.41
 20
9187.27
 30
0.0
 70
     0
 50
0.0
  0
VERTEX
  5
1DE
100
AcDbEntity
  8
0
100
AcDbVertex
100
AcDb2dVertex
 10
24270.130000000001
 20
9189.77
 30
0.0
 70
     0
 50
0.0
  0
VERTEX
  5
1DF
100
AcDbEntity
  8
0
100
AcDbVertex
100
AcDb2dVertex
 10
24227.310000000001
 20
9202.67
 30
0.0
 70
     0
 50
0.0
  0
VERTEX
  5
1E0
100
AcDbEntity
  8
0
100
AcDbVertex
100
AcDb2dVertex
 10
24137.41
 20
9233.35
 30
0.0
 70
     0
 50
0.0
  0
SEQEND
  5
1E1
100
AcDbEntity
  8
0
  0
TEXT
  5
1E2
100
AcDbEntity
  8
77_03_0009007 CadastralBlock
 62
     7
100
AcDbText
 10
23621.889999999999
 20
8942.880000000001
 30
0.0
 40
1.0
  1
77_03_0009007 CadastralBlock
100
AcDbText
  0
ENDSEC
  0
SECTION
  2
OBJECTS
  0
ENDSEC
  0
EOF
