  0
SECTION
  2
HEADER
  9
$ACADVER
  1
AC1015
  9
$ACADMAINTVER
 70
20
  9
$DWGCODEPAGE
  3
ANSI_1252
  9
$LASTSAVEDBY
  1
unknown
  9
$INSBASE
 10
0.0
 20
0.0
 30
0.0
  9
$EXTMIN
 10
1e+20
 20
1e+20
 30
1e+20
  9
$EXTMAX
 10
-1e+20
 20
-1e+20
 30
-1e+20
  9
$LIMMIN
 10
0.0
 20
0.0
  9
$LIMMAX
 10
12.0
 20
9.0
  9
$ORTHOMODE
 70
0
  9
$REGENMODE
 70
1
  9
$FILLMODE
 70
1
  9
$QTEXTMODE
 70
0
  9
$MIRRTEXT
 70
0
  9
$LTSCALE
 40
1.0
  9
$ATTMODE
 70
1
  9
$TEXTSIZE
 40
0.2
  9
$TRACEWID
 40
0.05
  9
$TEXTSTYLE
  7
Notes
  9
$CLAYER
  8
0
  9
$CELTYPE
  6
ByLayer
  9
$CECOLOR
 62
256
  9
$CELTSCALE
 40
1.0
  9
$DISPSILH
 70
0
  9
$DIMSCALE
 40
1.0
  9
$DIMASZ
 40
3.0
  9
$DIMEXO
 40
1.5
  9
$DIMDLI
 40
6.0
  9
$DIMRND
 40
0.0
  9
$DIMDLE
 40
0.0
  9
$DIMEXE
 40
3.0
  9
$DIMTP
 40
0.0
  9
$DIMTM
 40
0.0
  9
$DIMTXT
 40
3.0
  9
$DIMCEN
 40
3.0
  9
$DIMTSZ
 40
0.0
  9
$DIMTOL
 70
0
  9
$DIMLIM
 70
0
  9
$DIMTIH
 70
0
  9
$DIMTOH
 70
0
  9
$DIMSE1
 70
0
  9
$DIMSE2
 70
0
  9
$DIMTAD
 70
1
  9
$DIMZIN
 70
3
  9
$DIMBLK
  1

  9
$DIMASO
 70
1
  9
$DIMSHO
 70
1
  9
$DIMPOST
  1

  9
$DIMAPOST
  1

  9
$DIMALT
 70
0
  9
$DIMALTD
 70
2
  9
$DIMALTF
 40
25.4
  9
$DIMLFAC
 40
1.0
  9
$DIMTOFL
 70
0
  9
$DIMTVP
 40
0.0
  9
$DIMTIX
 70
0
  9
$DIMSOXD
 70
0
  9
$DIMSAH
 70
0
  9
$DIMBLK1
  1

  9
$DIMBLK2
  1

  9
$DIMSTYLE
  2
Civil-Metric
  9
$DIMCLRD
 70
0
  9
$DIMCLRE
 70
0
  9
$DIMCLRT
 70
0
  9
$DIMTFAC
 40
1.0
  9
$DIMGAP
 40
2.0
  9
$DIMJUST
 70
0
  9
$DIMSD1
 70
0
  9
$DIMSD2
 70
0
  9
$DIMTOLJ
 70
1
  9
$DIMTZIN
 70
0
  9
$DIMALTZ
 70
0
  9
$DIMALTTZ
 70
0
  9
$DIMUPT
 70
0
  9
$DIMDEC
 70
2
  9
$DIMTDEC
 70
2
  9
$DIMALTU
 70
2
  9
$DIMALTTD
 70
2
  9
$DIMTXSTY
  7
Standard
  9
$DIMAUNIT
 70
0
  9
$DIMADEC
 70
2
  9
$DIMALTRND
 40
0.0
  9
$DIMAZIN
 70
2
  9
$DIMDSEP
 70
46
  9
$DIMATFIT
 70
3
  9
$DIMFRAC
 70
1
  9
$DIMLDRBLK
  1

  9
$DIMLUNIT
 70
2
  9
$DIMLWD
 70
-2
  9
$DIMLWE
 70
-2
  9
$DIMTMOVE
 70
0
  9
$LUNITS
 70
2
  9
$LUPREC
 70
4
  9
$SKETCHINC
 40
0.1
  9
$FILLETRAD
 40
0.0
  9
$AUNITS
 70
4
  9
$AUPREC
 70
5
  9
$MENU
  1
.
  9
$ELEVATION
 40
0.0
  9
$PELEVATION
 40
0.0
  9
$THICKNESS
 40
0.0
  9
$LIMCHECK
 70
0
  9
$CHAMFERA
 40
0.0
  9
$CHAMFERB
 40
0.0
  9
$CHAMFERC
 40
0.0
  9
$CHAMFERD
 40
0.0
  9
$SKPOLY
 70
0
  9
$TDCREATE
 40
2458227.7008796297
  9
$TDUPDATE
 40
2458227.7008796297
  9
$TDINDWG
 40
0.0
  9
$TDUSRTIMER
 40
0.0
  9
$USRTIMER
 70
1
  9
$ANGBASE
 50
0.0
  9
$ANGDIR
 70
0
  9
$PDMODE
 70
0
  9
$PDSIZE
 40
0.0
  9
$PLINEWID
 40
0.0
  9
$SPLFRAME
 70
0
  9
$SPLINETYPE
 70
6
  9
$SPLINESEGS
 70
8
  9
$HANDSEED
  5
5E1
  9
$SURFTAB1
 70
6
  9
$SURFTAB2
 70
6
  9
$SURFTYPE
 70
6
  9
$SURFU
 70
6
  9
$SURFV
 70
6
  9
$UCSBASE
  2

  9
$UCSNAME
  2

  9
$UCSORG
 10
0.0
 20
0.0
 30
0.0
  9
$UCSXDIR
 10
1.0
 20
0.0
 30
0.0
  9
$UCSYDIR
 10
0.0
 20
1.0
 30
0.0
  9
$UCSORTHOREF
  2

  9
$UCSORTHOVIEW
 70
0
  9
$UCSORGTOP
 10
0.0
 20
0.0
 30
0.0
  9
$UCSORGBOTTOM
 10
0.0
 20
0.0
 30
0.0
  9
$UCSORGLEFT
 10
0.0
 20
0.0
 30
0.0
  9
$UCSORGRIGHT
 10
0.0
 20
0.0
 30
0.0
  9
$UCSORGFRONT
 10
0.0
 20
0.0
 30
0.0
  9
$UCSORGBACK
 10
0.0
 20
0.0
 30
0.0
  9
$PUCSBASE
  2

  9
$PUCSNAME
  2

  9
$PUCSORG
 10
0.0
 20
0.0
 30
0.0
  9
$PUCSXDIR
 10
1.0
 20
0.0
 30
0.0
  9
$PUCSYDIR
 10
0.0
 20
1.0
 30
0.0
  9
$PUCSORTHOREF
  2

  9
$PUCSORTHOVIEW
 70
0
  9
$PUCSORGTOP
 10
0.0
 20
0.0
 30
0.0
  9
$PUCSORGBOTTOM
 10
0.0
 20
0.0
 30
0.0
  9
$PUCSORGLEFT
 10
0.0
 20
0.0
 30
0.0
  9
$PUCSORGRIGHT
 10
0.0
 20
0.0
 30
0.0
  9
$PUCSORGFRONT
 10
0.0
 20
0.0
 30
0.0
  9
$PUCSORGBACK
 10
0.0
 20
0.0
 30
0.0
  9
$USERI1
 70
0
  9
$USERI2
 70
0
  9
$USERI3
 70
0
  9
$USERI4
 70
0
  9
$USERI5
 70
0
  9
$USERR1
 40
0.0
  9
$USERR2
 40
0.0
  9
$USERR3
 40
0.0
  9
$USERR4
 40
0.0
  9
$USERR5
 40
0.0
  9
$WORLDVIEW
 70
1
  9
$SHADEDGE
 70
3
  9
$SHADEDIF
 70
70
  9
$TILEMODE
 70
1
  9
$MAXACTVP
 70
64
  9
$PINSBASE
 10
0.0
 20
0.0
 30
0.0
  9
$PLIMCHECK
 70
0
  9
$PEXTMIN
 10
0.62886676639706
 20
0.7999999523162842
 30
0.0
  9
$PEXTMAX
 10
9.028866384927335
 20
7.199999570846558
 30
0.0
  9
$PLIMMIN
 10
-0.7005418191744587
 20
-0.2281003861915408
  9
$PLIMMAX
 10
10.29945794052965
 20
8.27189937351257
  9
$UNITMODE
 70
0
  9
$VISRETAIN
 70
1
  9
$PLINEGEN
 70
0
  9
$PSLTSCALE
 70
1
  9
$TREEDEPTH
 70
3020
  9
$CMLSTYLE
  2
Standard
  9
$CMLJUST
 70
0
  9
$CMLSCALE
 40
1.0
  9
$PROXYGRAPHICS
 70
1
  9
$MEASUREMENT
 70
1
  9
$CELWEIGHT
370
-1
  9
$ENDCAPS
280
0
  9
$JOINSTYLE
280
0
  9
$LWDISPLAY
290
0
  9
$INSUNITS
 70
4
  9
$HYPERLINKBASE
  1

  9
$STYLESHEET
  1

  9
$XEDIT
290
1
  9
$CEPSNTYPE
380
0
  9
$PSTYLEMODE
290
1
  9
$FINGERPRINTGUID
  2
48DCB4A6-430F-11E8-9DC8-00265A6BC51D
  9
$VERSIONGUID
  2
48F2ADF8-430F-11E8-A9C3-00265A6BC51D
  9
$EXTNAMES
290
1
  9
$PSVPSCALE
 40
0.0
  9
$OLESTARTUP
290
0
  0
ENDSEC
  0
SECTION
  2
CLASSES
  0
CLASS
  1
ACDBDICTIONARYWDFLT
  2
AcDbDictionaryWithDefault
  3
ObjectDBX Classes
 90
0
280
0
281
0
  0
CLASS
  1
ACDBPLACEHOLDER
  2
AcDbPlaceHolder
  3
ObjectDBX Classes
 90
0
280
0
281
0
  0
CLASS
  1
LAYOUT
  2
AcDbLayout
  3
ObjectDBX Classes
 90
0
280
0
281
0
  0
CLASS
  1
DICTIONARYVAR
  2
AcDbDictionaryVar
  3
ObjectDBX Classes
 90
0
280
0
281
0
  0
CLASS
  1
TABLESTYLE
  2
AcDbTableStyle
  3
ObjectDBX Classes
 90
4095
280
0
281
0
  0
CLASS
  1
MATERIAL
  2
AcDbMaterial
  3
ObjectDBX Classes
 90
1153
280
0
281
0
  0
CLASS
  1
VISUALSTYLE
  2
AcDbVisualStyle
  3
ObjectDBX Classes
 90
4095
280
0
281
0
  0
CLASS
  1
SCALE
  2
AcDbScale
  3
ObjectDBX Classes
 90
1153
280
0
281
0
  0
CLASS
  1
MLEADERSTYLE
  2
AcDbMLeaderStyle
  3
ACDB_MLEADERSTYLE_CLASS
 90
4095
280
0
281
0
  0
CLASS
  1
CELLSTYLEMAP
  2
AcDbCellStyleMap
  3
ObjectDBX Classes
 90
1152
280
0
281
0
  0
CLASS
  1
EXACXREFPANELOBJECT
  2
ExAcXREFPanelObject
  3
EXAC_ESW
 90
33793
280
0
281
0
  0
CLASS
  1
NPOCOLLECTION
  2
AcDbImpNonPersistentObjectsCollection
  3
ObjectDBX Classes
 90
33921
280
0
281
0
  0
CLASS
  1
LAYER_INDEX
  2
AcDbLayerIndex
  3
ObjectDBX Classes
 90
32768
280
0
281
0
  0
CLASS
  1
SPATIAL_INDEX
  2
AcDbSpatialIndex
  3
ObjectDBX Classes
 90
32768
280
0
281
0
  0
CLASS
  1
IDBUFFER
  2
AcDbIdBuffer
  3
ObjectDBX Classes
 90
32768
280
0
281
0
  0
CLASS
  1
DIMASSOC
  2
AcDbDimAssoc
  3
"AcDbDimAssoc|Product Desc:     AcDim ARX App For Dimension|Company:          Autodesk, Inc.|WEB Address:      www.autodesk.com"
 90
32768
280
0
281
0
  0
CLASS
  1
IMAGEDEF
  2
AcDbRasterImageDef
  3
ISM
 90
0
280
0
281
0
  0
CLASS
  1
RASTERVARIABLES
  2
AcDbRasterVariables
  3
ISM
 90
0
280
0
281
0
  0
CLASS
  1
IMAGEDEF_REACTOR
  2
AcDbRasterImageDefReactor
  3
ISM
 90
1
280
0
281
0
  0
CLASS
  1
IMAGE
  2
AcDbRasterImage
  3
ISM
 90
2175
280
0
281
1
  0
CLASS
  1
PDFDEFINITION
  2
AcDbPdfDefinition
  3
ObjectDBX Classes
 90
1153
280
0
281
0
  0
CLASS
  1
PDFUNDERLAY
  2
AcDbPdfReference
  3
ObjectDBX Classes
 90
4095
280
0
281
1
  0
CLASS
  1
DWFDEFINITION
  2
AcDbDwfDefinition
  3
ObjectDBX Classes
 90
1153
280
0
281
0
  0
CLASS
  1
DWFUNDERLAY
  2
AcDbDwfReference
  3
ObjectDBX Classes
 90
1153
280
0
281
1
  0
CLASS
  1
DGNDEFINITION
  2
AcDbDgnDefinition
  3
ObjectDBX Classes
 90
1153
280
0
281
0
  0
CLASS
  1
DGNUNDERLAY
  2
AcDbDgnReference
  3
ObjectDBX Classes
 90
1153
280
0
281
1
  0
ENDSEC
  0
SECTION
  2
TABLES
  0
TABLE
  2
VPORT
  5
8
330
0
100
AcDbSymbolTable
 70
0
  0
ENDTAB
  0
TABLE
  2
LTYPE
  5
5
330
0
100
AcDbSymbolTable
 70
7
  0
LTYPE
  5
14
330
5
100
AcDbSymbolTableRecord
100
AcDbLinetypeTableRecord
  2
ByBlock
 70
0
  3

 72
65
 73
0
 40
0.0
  0
LTYPE
  5
15
330
5
100
AcDbSymbolTableRecord
100
AcDbLinetypeTableRecord
  2
ByLayer
 70
0
  3

 72
65
 73
0
 40
0.0
  0
LTYPE
  5
16
330
5
100
AcDbSymbolTableRecord
100
AcDbLinetypeTableRecord
  2
Continuous
 70
0
  3
Solid line
 72
65
 73
0
 40
0.0
  0
LTYPE
  5
1B1
330
5
100
AcDbSymbolTableRecord
100
AcDbLinetypeTableRecord
  2
CENTER
 70
0
  3
Center ____ _ ____ _ ____ _ ____ _ ____ _ ____
 72
65
 73
4
 40
2.0
 49
1.25
 74
0
 49
-0.25
 74
0
 49
0.25
 74
0
 49
-0.25
 74
0
  0
LTYPE
  5
1B2
330
5
100
AcDbSymbolTableRecord
100
AcDbLinetypeTableRecord
  2
DASHED
 70
0
  3
Dashed __ __ __ __ __ __ __ __ __ __ __ __ __ _
 72
65
 73
2
 40
0.75
 49
0.5
 74
0
 49
-0.25
 74
0
  0
LTYPE
  5
1B3
330
5
100
AcDbSymbolTableRecord
100
AcDbLinetypeTableRecord
  2
PHANTOM
 70
0
  3
Phantom ______  __  __  ______  __  __  ______
 72
65
 73
6
 40
2.5
 49
1.25
 74
0
 49
-0.25
 74
0
 49
0.25
 74
0
 49
-0.25
 74
0
 49
0.25
 74
0
 49
-0.25
 74
0
  0
LTYPE
  5
39E
330
5
100
AcDbSymbolTableRecord
100
AcDbLinetypeTableRecord
  2
HIDDEN
 70
0
  3
Hidden __ __ __ __ __ __ __ __ __ __ __ __ __ __
 72
65
 73
2
 40
9.525
 49
6.35
 74
0
 49
-3.175
 74
0
  0
ENDTAB
  0
TABLE
  2
LAYER
  5
2
330
0
100
AcDbSymbolTable
 70
3
  0
LAYER
  5
10
330
2
100
AcDbSymbolTableRecord
100
AcDbLayerTableRecord
  2
0
 70
0
 62
7
  6
Continuous
370
-3
390
4AA
  0
LAYER
  5
1B4
330
2
100
AcDbSymbolTableRecord
100
AcDbLayerTableRecord
  2
View Port
 70
0
 62
7
  6
Continuous
290
0
370
-3
390
4AA
  0
LAYER
  5
21D
330
2
100
AcDbSymbolTableRecord
100
AcDbLayerTableRecord
  2
Defpoints
 70
0
 62
7
  6
Continuous
290
0
370
-3
390
4AA
  0
ENDTAB
  0
TABLE
  2
STYLE
  5
3
330
0
100
AcDbSymbolTable
 70
3
  0
STYLE
  5
11
330
3
100
AcDbSymbolTableRecord
100
AcDbTextStyleTableRecord
  2
Standard
 70
0
 40
0.0
 41
1.0
 50
0.0
 71
0
 42
0.2
  3
arial.ttf
  4

  0
STYLE
  5
DC
330
3
100
AcDbSymbolTableRecord
100
AcDbTextStyleTableRecord
  2
Annotative
 70
0
 40
0.0
 41
1.0
 50
0.0
 71
0
 42
0.2
  3
arial.ttf
  4

  0
STYLE
  5
178
330
3
100
AcDbSymbolTableRecord
100
AcDbTextStyleTableRecord
  2
Notes
 70
0
 40
3.0
 41
1.0
 50
0.0
 71
0
 42
0.2
  3
arial.ttf
  4

  0
ENDTAB
  0
TABLE
  2
VIEW
  5
6
330
0
100
AcDbSymbolTable
 70
0
  0
ENDTAB
  0
TABLE
  2
UCS
  5
7
330
0
100
AcDbSymbolTable
 70
0
  0
ENDTAB
  0
TABLE
  2
APPID
  5
9
330
0
100
AcDbSymbolTable
 70
11
  0
APPID
  5
12
330
9
100
AcDbSymbolTableRecord
100
AcDbRegAppTableRecord
  2
ACAD
 70
0
  0
APPID
  5
DD
330
9
100
AcDbSymbolTableRecord
100
AcDbRegAppTableRecord
  2
AcadAnnoPO
 70
0
  0
APPID
  5
DE
330
9
100
AcDbSymbolTableRecord
100
AcDbRegAppTableRecord
  2
AcadAnnotative
 70
0
  0
APPID
  5
DF
330
9
100
AcDbSymbolTableRecord
100
AcDbRegAppTableRecord
  2
ACAD_DSTYLE_DIMJAG
 70
0
  0
APPID
  5
E0
330
9
100
AcDbSymbolTableRecord
100
AcDbRegAppTableRecord
  2
ACAD_DSTYLE_DIMTALN
 70
0
  0
APPID
  5
107
330
9
100
AcDbSymbolTableRecord
100
AcDbRegAppTableRecord
  2
ACAD_MLEADERVER
 70
0
  0
APPID
  5
1B5
330
9
100
AcDbSymbolTableRecord
100
AcDbRegAppTableRecord
  2
AcAecLayerStandard
 70
0
  0
APPID
  5
1BA
330
9
100
AcDbSymbolTableRecord
100
AcDbRegAppTableRecord
  2
ACAD_EXEMPT_FROM_CAD_STANDARDS
 70
0
  0
APPID
  5
237
330
9
100
AcDbSymbolTableRecord
100
AcDbRegAppTableRecord
  2
ACAD_DSTYLE_DIMBREAK
 70
0
  0
APPID
  5
28E
330
9
100
AcDbSymbolTableRecord
100
AcDbRegAppTableRecord
  2
ACAD_PSEXT
 70
0
  0
APPID
  5
482
330
9
100
AcDbSymbolTableRecord
100
AcDbRegAppTableRecord
  2
HATCHBACKGROUNDCOLOR
 70
0
  0
ENDTAB
  0
TABLE
  2
DIMSTYLE
  5
A
330
0
100
AcDbSymbolTable
 70
3
100
AcDbDimStyleTable
 71
3
340
242
340
27
340
E1
  0
DIMSTYLE
105
27
330
A
100
AcDbSymbolTableRecord
100
AcDbDimStyleTableRecord
  2
Standard
 70
0
 41
3.0
 42
2.0
 43
9.0
 44
5.0
140
3.0
141
2.0
147
2.0
340
11
1001
ACAD_DSTYLE_DIMJAG
1070
388
1040
38.0
1001
ACAD_DSTYLE_DIMBREAK
1070
391
1040
90.0
1001
ACAD_DSTYLE_DIMTALN
1070
392
1070
0
  0
DIMSTYLE
105
E1
330
A
100
AcDbSymbolTableRecord
100
AcDbDimStyleTableRecord
  2
Annotative
 70
0
 40
0.0
 41
3.0
 42
2.5
 43
10.0
 44
5.0
140
3.0
141
2.0
147
2.0
340
11
1001
AcadAnnotative
1000
AnnotativeData
1002
{
1070
1
1070
1
1002
}
1001
ACAD_DSTYLE_DIMJAG
1070
388
1040
38.0
1001
ACAD_DSTYLE_DIMBREAK
1070
391
1040
90.0
1001
ACAD_DSTYLE_DIMTALN
1070
392
1070
0
  0
DIMSTYLE
105
242
330
A
100
AcDbSymbolTableRecord
100
AcDbDimStyleTableRecord
  2
Civil-Metric
 70
0
 41
3.0
 42
1.5
 43
6.0
 44
3.0
 73
0
 74
0
 77
1
 78
3
 79
2
140
3.0
141
3.0
147
2.0
179
2
271
2
272
2
276
1
340
11
1001
ACAD_DSTYLE_DIMBREAK
1070
391
1040
3.0
1001
ACAD_DSTYLE_DIMJAG
1070
388
1040
38.0
1001
ACAD_DSTYLE_DIMTALN
1070
392
1070
0
  0
ENDTAB
  0
TABLE
  2
BLOCK_RECORD
  5
1
330
0
100
AcDbSymbolTable
 70
16
  0
BLOCK_RECORD
  5
1F
102
{ACAD_XDICTIONARY
360
15D
102
}
330
1
100
AcDbSymbolTableRecord
100
AcDbBlockTableRecord
  2
*Model_Space
340
4AF
  0
BLOCK_RECORD
  5
58
330
1
100
AcDbSymbolTableRecord
100
AcDbBlockTableRecord
  2
*Paper_Space
340
4B0
  0
BLOCK_RECORD
  5
238
330
1
100
AcDbSymbolTableRecord
100
AcDbBlockTableRecord
  2
_ArchTick
340
0
  0
BLOCK_RECORD
  5
23C
330
1
100
AcDbSymbolTableRecord
100
AcDbBlockTableRecord
  2
_Open30
340
0
  0
BLOCK_RECORD
  5
59B
330
1
100
AcDbSymbolTableRecord
100
AcDbBlockTableRecord
  2
21 02 010107
340
0
  0
BLOCK_RECORD
  5
5A1
330
1
100
AcDbSymbolTableRecord
100
AcDbBlockTableRecord
  2
21 02 010107 11
340
0
  0
BLOCK_RECORD
  5
5A7
330
1
100
AcDbSymbolTableRecord
100
AcDbBlockTableRecord
  2
21 02 010107 12
340
0
  0
BLOCK_RECORD
  5
5AD
330
1
100
AcDbSymbolTableRecord
100
AcDbBlockTableRecord
  2
21 02 010107 13
340
0
  0
BLOCK_RECORD
  5
5B3
330
1
100
AcDbSymbolTableRecord
100
AcDbBlockTableRecord
  2
21 02 010107 14
340
0
  0
BLOCK_RECORD
  5
5B9
330
1
100
AcDbSymbolTableRecord
100
AcDbBlockTableRecord
  2
21 02 010107 15
340
0
  0
BLOCK_RECORD
  5
5BF
330
1
100
AcDbSymbolTableRecord
100
AcDbBlockTableRecord
  2
21 02 010107 2
340
0
  0
BLOCK_RECORD
  5
5C5
330
1
100
AcDbSymbolTableRecord
100
AcDbBlockTableRecord
  2
21 02 010107 3
340
0
  0
BLOCK_RECORD
  5
5CB
330
1
100
AcDbSymbolTableRecord
100
AcDbBlockTableRecord
  2
21 02 010107 4
340
0
  0
BLOCK_RECORD
  5
5D1
330
1
100
AcDbSymbolTableRecord
100
AcDbBlockTableRecord
  2
21 02 010107 7
340
0
  0
BLOCK_RECORD
  5
5D7
330
1
100
AcDbSymbolTableRecord
100
AcDbBlockTableRecord
  2
21 02 010107 8
340
0
  0
BLOCK_RECORD
  5
5DD
330
1
100
AcDbSymbolTableRecord
100
AcDbBlockTableRecord
  2
21 02 010107 9
340
0
  0
ENDTAB
  0
ENDSEC
  0
SECTION
  2
BLOCKS
  0
BLOCK
  5
5A
330
58
100
AcDbEntity
 67
1
  8
0
100
AcDbBlockBegin
  2
*Paper_Space
 70
0
 10
0.0
 20
0.0
 30
0.0
  3
*Paper_Space
  1

  0
ENDBLK
  5
5B
330
58
100
AcDbEntity
 67
1
  8
0
100
AcDbBlockEnd
  0
BLOCK
  5
20
330
1F
100
AcDbEntity
  8
0
100
AcDbBlockBegin
  2
*Model_Space
 70
0
 10
0.0
 20
0.0
 30
0.0
  3
*Model_Space
  1

  0
ENDBLK
  5
21
330
1F
100
AcDbEntity
  8
0
100
AcDbBlockEnd
  0
BLOCK
  5
23A
330
238
100
AcDbEntity
  8
0
100
AcDbBlockBegin
  2
_ArchTick
 70
0
 10
0.0
 20
0.0
 30
0.0
  3
_ArchTick
  1

  0
LWPOLYLINE
  5
239
330
238
100
AcDbEntity
  8
0
  6
ByBlock
 62
0
100
AcDbPolyline
 90
2
 70
0
 43
0.15
 10
-0.5
 20
-0.5
 10
0.5
 20
0.5
  0
ENDBLK
  5
23B
330
238
100
AcDbEntity
  8
0
100
AcDbBlockEnd
  0
BLOCK
  5
240
330
23C
100
AcDbEntity
  8
0
100
AcDbBlockBegin
  2
_Open30
 70
0
 10
0.0
 20
0.0
 30
0.0
  3
_Open30
  1

  0
LINE
  5
23D
330
23C
100
AcDbEntity
  8
0
  6
ByBlock
 62
0
370
-2
100
AcDbLine
 10
-1.0
 20
0.26794919
 30
0.0
 11
0.0
 21
0.0
 31
0.0
  0
LINE
  5
23E
330
23C
100
AcDbEntity
  8
0
  6
ByBlock
 62
0
370
-2
100
AcDbLine
 10
0.0
 20
0.0
 30
0.0
 11
-1.0
 21
-0.26794919
 31
0.0
  0
LINE
  5
23F
330
23C
100
AcDbEntity
  8
0
  6
ByBlock
 62
0
370
-2
100
AcDbLine
 10
0.0
 20
0.0
 30
0.0
 11
-1.0
 21
0.0
 31
0.0
  0
ENDBLK
  5
241
330
23C
100
AcDbEntity
  8
0
100
AcDbBlockEnd
  0
BLOCK
  5
599
330
59B
100
AcDbEntity
  8
0
100
AcDbBlockBegin
  2
21 02 010107
  3
21 02 010107
 70
0
 10
0.0
 20
0.0
  1

  0
LWPOLYLINE
  5
59C
330
59B
100
AcDbEntity
  8
0
 62
7
 67
0
100
AcDbPolyline
 90
28
 70
0
 43
2.0
 10
1245098.47
 20
408582.0
 10
1245079.75
 20
408475.05
 10
1244993.08
 20
408248.77
 10
1244953.4
 20
408168.29
 10
1244929.22
 20
408097.47
 10
1244837.43
 20
407669.54
 10
1244812.82
 20
407504.16
 10
1244777.37
 20
407152.52
 10
1245223.62
 20
407094.32
 10
1245637.52
 20
407035.72
 10
1245739.53
 20
407007.36
 10
1245774.91
 20
406984.79
 10
1245855.34
 20
407057.69
 10
1245867.91
 20
407084.64
 10
1245903.97
 20
407263.1
 10
1245987.01
 20
407658.06
 10
1246086.97
 20
408162.37
 10
1246098.88
 20
408174.18
 10
1246125.01
 20
408186.72
 10
1246212.03
 20
408199.79
 10
1246369.19
 20
408169.09
 10
1246214.89
 20
408260.51
 10
1246008.09
 20
408433.42
 10
1245934.37
 20
408445.79
 10
1245796.75
 20
408436.54
 10
1245559.92
 20
408491.59
 10
1245372.04
 20
408499.75
 10
1245098.47
 20
408582.0
  0
TEXT
  5
59D
330
59B
100
AcDbEntity
  8
0
 62
7
 67
0
100
AcDbText
 10
1245573.0
 20
407783.0
 40
25.0
  1
21:02:010107 CadastralBlock
 50
0.0
 51
0.0
  7
STANDARD
 41
1.0
 71
0
 72
1
 11
1245573.0
 21
407783.0
100
AcDbText
 73
2
  0
ENDBLK
  5
59A
330
59B
100
AcDbEntity
  8
0
100
AcDbBlockEnd
  0
BLOCK
  5
59F
330
5A1
100
AcDbEntity
  8
0
100
AcDbBlockBegin
  2
21 02 010107 11
  3
21 02 010107 11
 70
0
 10
0.0
 20
0.0
  1

  0
LWPOLYLINE
  5
5A2
330
5A1
100
AcDbEntity
  8
0
 62
8
 67
0
100
AcDbPolyline
 90
11
 70
0
 10
1246008.09
 20
408433.42
 10
1246214.89
 20
408260.51
 10
1246264.79
 20
408230.95
 10
1246265.15
 20
408227.09
 10
1246264.16
 20
408223.09
 10
1246260.11
 20
408218.11
 10
1246249.28
 20
408215.55
 10
1246152.18
 20
408250.58
 10
1245955.27
 20
408393.28
 10
1245992.02
 20
408436.11
 10
1246008.09
 20
408433.42
  0
TEXT
  5
5A3
330
5A1
100
AcDbEntity
  8
0
 62
8
 67
0
100
AcDbText
 10
1246110.0
 20
408325.0
 40
25.0
  1
21:02:010107:11 Parcel
 50
0.0
 51
0.0
  7
STANDARD
 41
1.0
 71
0
 72
1
 11
1246110.0
 21
408325.0
100
AcDbText
 73
2
  0
ENDBLK
  5
5A0
330
5A1
100
AcDbEntity
  8
0
100
AcDbBlockEnd
  0
BLOCK
  5
5A5
330
5A7
100
AcDbEntity
  8
0
100
AcDbBlockBegin
  2
21 02 010107 12
  3
21 02 010107 12
 70
0
 10
0.0
 20
0.0
  1

  0
LWPOLYLINE
  5
5A8
330
5A7
100
AcDbEntity
  8
0
 62
8
 67
0
100
AcDbPolyline
 90
7
 70
0
 10
1244830.86
 20
407420.54
 10
1244855.48
 20
407306.47
 10
1244863.46
 20
407206.31
 10
1244818.73
 20
407212.28
 10
1244808.84
 20
407242.79
 10
1244830.41
 20
407396.91
 10
1244830.86
 20
407420.54
  0
TEXT
  5
5A9
330
5A7
100
AcDbEntity
  8
0
 62
8
 67
0
100
AcDbText
 10
1244836.0
 20
407313.0
 40
13.442500000004657
  1
21:02:010107:12 Parcel
 50
0.0
 51
0.0
  7
STANDARD
 41
1.0
 71
0
 72
1
 11
1244836.0
 21
407313.0
100
AcDbText
 73
2
  0
ENDBLK
  5
5A6
330
5A7
100
AcDbEntity
  8
0
100
AcDbBlockEnd
  0
BLOCK
  5
5AB
330
5AD
100
AcDbEntity
  8
0
100
AcDbBlockBegin
  2
21 02 010107 13
  3
21 02 010107 13
 70
0
 10
0.0
 20
0.0
  1

  0
LWPOLYLINE
  5
5AE
330
5AD
100
AcDbEntity
  8
0
 62
8
 67
0
100
AcDbPolyline
 90
5
 70
0
 10
1245217.88
 20
407154.12
 10
1245232.75
 20
407151.93
 10
1245230.72
 20
407139.11
 10
1245210.88
 20
407142.05
 10
1245217.88
 20
407154.12
  0
TEXT
  5
5AF
330
5AD
100
AcDbEntity
  8
0
 62
8
 67
0
100
AcDbText
 10
1245221.0
 20
407146.0
 40
1.8440000000060537
  1
21:02:010107:13 Parcel
 50
0.0
 51
0.0
  7
STANDARD
 41
1.0
 71
0
 72
1
 11
1245221.0
 21
407146.0
100
AcDbText
 73
2
  0
ENDBLK
  5
5AC
330
5AD
100
AcDbEntity
  8
0
100
AcDbBlockEnd
  0
BLOCK
  5
5B1
330
5B3
100
AcDbEntity
  8
0
100
AcDbBlockBegin
  2
21 02 010107 14
  3
21 02 010107 14
 70
0
 10
0.0
 20
0.0
  1

  0
LWPOLYLINE
  5
5B4
330
5B3
100
AcDbEntity
  8
0
 62
8
 67
0
100
AcDbPolyline
 90
24
 70
0
 10
1245217.88
 20
407154.12
 10
1245210.88
 20
407142.05
 10
1245210.75
 20
407141.13
 10
1245205.58
 20
407105.36
 10
1245201.69
 20
407105.98
 10
1245206.33
 20
407141.76
 10
1245206.45
 20
407142.68
 10
1245068.81
 20
407163.28
 10
1245069.02
 20
407161.61
 10
1245069.88
 20
407155.01
 10
1245071.49
 20
407133.91
 10
1245070.11
 20
407123.86
 10
1245066.47
 20
407124.58
 10
1245067.7
 20
407133.9
 10
1245066.89
 20
407149.05
 10
1245064.79
 20
407162.23
 10
1245064.47
 20
407164.25
 10
1244956.17
 20
407179.78
 10
1244905.61
 20
407185.47
 10
1244829.22
 20
407196.3
 10
1244823.66
 20
407197.08
 10
1244818.73
 20
407212.28
 10
1244863.46
 20
407206.31
 10
1245217.88
 20
407154.12
  0
TEXT
  5
5B5
330
5B3
100
AcDbEntity
  8
0
 62
8
 67
0
100
AcDbText
 10
1245018.0
 20
407158.0
 40
25.0
  1
21:02:010107:14 Parcel
 50
0.0
 51
0.0
  7
STANDARD
 41
1.0
 71
0
 72
1
 11
1245018.0
 21
407158.0
100
AcDbText
 73
2
  0
ENDBLK
  5
5B2
330
5B3
100
AcDbEntity
  8
0
100
AcDbBlockEnd
  0
BLOCK
  5
5B7
330
5B9
100
AcDbEntity
  8
0
100
AcDbBlockBegin
  2
21 02 010107 15
  3
21 02 010107 15
 70
0
 10
0.0
 20
0.0
  1

  0
LWPOLYLINE
  5
5BA
330
5B9
100
AcDbEntity
  8
0
 62
8
 67
0
100
AcDbPolyline
 90
10
 70
0
 10
1246109.95
 20
408281.18
 10
1246152.18
 20
408250.58
 10
1246167.88
 20
408233.54
 10
1246165.45
 20
408210.76
 10
1246124.88
 20
408198.1
 10
1246117.22
 20
408216.71
 10
1246111.08
 20
408234.53
 10
1246103.31
 20
408252.25
 10
1246093.41
 20
408265.93
 10
1246109.95
 20
408281.18
  0
TEXT
  5
5BB
330
5B9
100
AcDbEntity
  8
0
 62
8
 67
0
100
AcDbText
 10
1246130.0
 20
408239.0
 40
7.877499999984866
  1
21:02:010107:15 Parcel
 50
0.0
 51
0.0
  7
STANDARD
 41
1.0
 71
0
 72
1
 11
1246130.0
 21
408239.0
100
AcDbText
 73
2
  0
ENDBLK
  5
5B8
330
5B9
100
AcDbEntity
  8
0
100
AcDbBlockEnd
  0
BLOCK
  5
5BD
330
5BF
100
AcDbEntity
  8
0
100
AcDbBlockBegin
  2
21 02 010107 2
  3
21 02 010107 2
 70
0
 10
0.0
 20
0.0
  1

  0
LWPOLYLINE
  5
5C0
330
5BF
100
AcDbEntity
  8
0
 62
8
 67
0
100
AcDbPolyline
 90
18
 70
0
 10
1245625.42
 20
407118.09
 10
1245627.43
 20
407112.8
 10
1245625.7
 20
407098.99
 10
1245621.84
 20
407094.44
 10
1245620.73
 20
407094.58
 10
1245616.79
 20
407088.84
 10
1245614.94
 20
407089.04
 10
1245597.85
 20
407091.39
 10
1245596.13
 20
407091.71
 10
1245583.21
 20
407093.47
 10
1245582.15
 20
407093.02
 10
1245581.47
 20
407092.03
 10
1245580.82
 20
407087.25
 10
1245576.85
 20
407087.8
 10
1245578.29
 20
407097.26
 10
1245583.95
 20
407104.91
 10
1245586.52
 20
407122.96
 10
1245625.42
 20
407118.09
  0
TEXT
  5
5C1
330
5BF
100
AcDbEntity
  8
0
 62
8
 67
0
100
AcDbText
 10
1245602.0
 20
407105.0
 40
4.314499999984401
  1
21:02:010107:2 Parcel
 50
0.0
 51
0.0
  7
STANDARD
 41
1.0
 71
0
 72
1
 11
1245602.0
 21
407105.0
100
AcDbText
 73
2
  0
ENDBLK
  5
5BE
330
5BF
100
AcDbEntity
  8
0
100
AcDbBlockEnd
  0
BLOCK
  5
5C3
330
5C5
100
AcDbEntity
  8
0
100
AcDbBlockBegin
  2
21 02 010107 3
  3
21 02 010107 3
 70
0
 10
0.0
 20
0.0
  1

  0
LWPOLYLINE
  5
5C6
330
5C5
100
AcDbEntity
  8
0
 62
8
 67
0
100
AcDbPolyline
 90
14
 70
0
 10
1245579.93
 20
407081.37
 10
1245585.64
 20
407080.58
 10
1245585.47
 20
407079.36
 10
1245583.26
 20
407063.25
 10
1245576.78
 20
407060.58
 10
1245576.11
 20
407056.01
 10
1245577.63
 20
407053.02
 10
1245580.31
 20
407050.31
 10
1245566.46
 20
407052.4
 10
1245570.04
 20
407054.15
 10
1245572.15
 20
407056.6
 10
1245575.79
 20
407080.76
 10
1245575.96
 20
407081.87
 10
1245579.93
 20
407081.37
  0
TEXT
  5
5C7
330
5C5
100
AcDbEntity
  8
0
 62
8
 67
0
100
AcDbText
 10
1245576.0
 20
407066.0
 40
2.537000000011176
  1
21:02:010107:3 Parcel
 50
0.0
 51
0.0
  7
STANDARD
 41
1.0
 71
0
 72
1
 11
1245576.0
 21
407066.0
100
AcDbText
 73
2
  0
ENDBLK
  5
5C4
330
5C5
100
AcDbEntity
  8
0
100
AcDbBlockEnd
  0
BLOCK
  5
5C9
330
5CB
100
AcDbEntity
  8
0
100
AcDbBlockBegin
  2
21 02 010107 4
  3
21 02 010107 4
 70
0
 10
0.0
 20
0.0
  1

  0
LWPOLYLINE
  5
5CC
330
5CB
100
AcDbEntity
  8
0
 62
8
 67
0
100
AcDbPolyline
 90
5
 70
0
 10
1245298.64
 20
408521.82
 10
1245287.57
 20
408522.05
 10
1245281.28
 20
408524.42
 10
1245267.12
 20
408531.3
 10
1245298.64
 20
408521.82
  0
TEXT
  5
5CD
330
5CB
100
AcDbEntity
  8
0
 62
8
 67
0
100
AcDbText
 10
1245282.0
 20
408526.0
 40
2.05
  1
21:02:010107:4 Parcel
 50
0.0
 51
0.0
  7
STANDARD
 41
1.0
 71
0
 72
1
 11
1245282.0
 21
408526.0
100
AcDbText
 73
2
  0
ENDBLK
  5
5CA
330
5CB
100
AcDbEntity
  8
0
100
AcDbBlockEnd
  0
BLOCK
  5
5CF
330
5D1
100
AcDbEntity
  8
0
100
AcDbBlockBegin
  2
21 02 010107 7
  3
21 02 010107 7
 70
0
 10
0.0
 20
0.0
  1

  0
LWPOLYLINE
  5
5D2
330
5D1
100
AcDbEntity
  8
0
 62
8
 67
0
100
AcDbPolyline
 90
32
 70
0
 10
1245239.27
 20
407190.98
 10
1245265.21
 20
407233.55
 10
1245286.01
 20
407266.38
 10
1245361.4
 20
407380.91
 10
1245375.19
 20
407400.18
 10
1245385.1
 20
407408.85
 10
1245396.69
 20
407415.35
 10
1245413.33
 20
407420.86
 10
1245438.06
 20
407425.89
 10
1245456.47
 20
407427.71
 10
1245473.76
 20
407426.47
 10
1245479.01
 20
407397.04
 10
1245484.19
 20
407380.77
 10
1245489.22
 20
407371.18
 10
1245530.79
 20
407326.91
 10
1245545.42
 20
407310.16
 10
1245559.67
 20
407290.18
 10
1245569.1
 20
407273.4
 10
1245570.58
 20
407272.16
 10
1245575.33
 20
407269.92
 10
1245556.64
 20
407191.28
 10
1245533.7
 20
407094.18
 10
1245413.72
 20
407111.93
 10
1245410.61
 20
407104.63
 10
1245398.49
 20
407076.2
 10
1245395.3
 20
407076.45
 10
1245408.05
 20
407105.0
 10
1245411.34
 20
407112.33
 10
1245230.72
 20
407139.11
 10
1245232.75
 20
407151.93
 10
1245217.88
 20
407154.12
 10
1245239.27
 20
407190.98
  0
TEXT
  5
5D3
330
5D1
100
AcDbEntity
  8
0
 62
8
 67
0
100
AcDbText
 10
1245396.0
 20
407251.0
 40
25.0
  1
21:02:010107:7 Parcel
 50
0.0
 51
0.0
  7
STANDARD
 41
1.0
 71
0
 72
1
 11
1245396.0
 21
407251.0
100
AcDbText
 73
2
  0
ENDBLK
  5
5D0
330
5D1
100
AcDbEntity
  8
0
100
AcDbBlockEnd
  0
BLOCK
  5
5D5
330
5D7
100
AcDbEntity
  8
0
100
AcDbBlockBegin
  2
21 02 010107 8
  3
21 02 010107 8
 70
0
 10
0.0
 20
0.0
  1

  0
LWPOLYLINE
  5
5D8
330
5D7
100
AcDbEntity
  8
0
 62
8
 67
0
100
AcDbPolyline
 90
14
 70
0
 10
1246078.78
 20
408139.32
 10
1245996.47
 20
407722.6
 10
1245912.5
 20
407740.59
 10
1245913.98
 20
407938.87
 10
1245966.33
 20
407935.07
 10
1245988.4
 20
407935.57
 10
1246004.91
 20
407926.33
 10
1246012.82
 20
407915.82
 10
1246029.1
 20
407891.51
 10
1246030.64
 20
407905.01
 10
1246020.79
 20
407933.98
 10
1245999.14
 20
407967.16
 10
1246008.06
 20
408190.32
 10
1246078.78
 20
408139.32
  0
TEXT
  5
5D9
330
5D7
100
AcDbEntity
  8
0
 62
8
 67
0
100
AcDbText
 10
1245995.0
 20
407956.0
 40
25.0
  1
21:02:010107:8 Parcel
 50
0.0
 51
0.0
  7
STANDARD
 41
1.0
 71
0
 72
1
 11
1245995.0
 21
407956.0
100
AcDbText
 73
2
  0
ENDBLK
  5
5D6
330
5D7
100
AcDbEntity
  8
0
100
AcDbBlockEnd
  0
BLOCK
  5
5DB
330
5DD
100
AcDbEntity
  8
0
100
AcDbBlockBegin
  2
21 02 010107 9
  3
21 02 010107 9
 70
0
 10
0.0
 20
0.0
  1

  0
LWPOLYLINE
  5
5DE
330
5DD
100
AcDbEntity
  8
0
 62
8
 67
0
100
AcDbPolyline
 90
91
 70
0
 10
1245625.42
 20
407118.09
 10
1245627.43
 20
407112.8
 10
1245625.7
 20
407098.99
 10
1245621.84
 20
407094.44
 10
1245620.73
 20
407094.58
 10
1245616.79
 20
407088.84
 10
1245620.32
 20
407081.85
 10
1245624.95
 20
407081.21
 10
1245649.03
 20
407077.76
 10
1245686.62
 20
407069.96
 10
1245707.52
 20
407063.87
 10
1245725.28
 20
407057.57
 10
1245800.77
 20
407034.76
 10
1245807.05
 20
407034.09
 10
1245822.9
 20
407030.95
 10
1245836.03
 20
407045.18
 10
1245847.34
 20
407059.21
 10
1245855.79
 20
407072.51
 10
1245861.41
 20
407087.45
 10
1245869.98
 20
407127.44
 10
1245897.92
 20
407257.58
 10
1245895.96
 20
407260.73
 10
1245899.93
 20
407277.5
 10
1245902.76
 20
407279.24
 10
1245996.47
 20
407722.6
 10
1245912.5
 20
407740.59
 10
1245913.98
 20
407938.87
 10
1245966.33
 20
407935.07
 10
1245988.4
 20
407935.57
 10
1246004.91
 20
407926.33
 10
1246012.82
 20
407915.82
 10
1246029.1
 20
407891.51
 10
1246030.64
 20
407905.01
 10
1246020.79
 20
407933.98
 10
1245999.14
 20
407967.16
 10
1246008.06
 20
408190.32
 10
1246078.78
 20
408139.32
 10
1246081.16
 20
408163.73
 10
1246100.89
 20
408187.66
 10
1246100.7
 20
408222.5
 10
1246089.98
 20
408247.91
 10
1246067.36
 20
408273.65
 10
1245994.9
 20
408323.43
 10
1245958.01
 20
408342.06
 10
1245919.25
 20
408349.89
 10
1245880.0
 20
408355.74
 10
1245841.97
 20
408360.84
 10
1245804.42
 20
408364.45
 10
1245768.12
 20
408368.07
 10
1245613.25
 20
408380.83
 10
1245407.58
 20
408413.82
 10
1245369.3
 20
408416.69
 10
1245325.09
 20
408422.07
 10
1245283.39
 20
408434.6
 10
1245204.96
 20
408467.55
 10
1245116.13
 20
408496.1
 10
1245058.05
 20
408316.71
 10
1244969.61
 20
408143.88
 10
1244891.04
 20
407793.74
 10
1244831.58
 20
407458.49
 10
1244830.86
 20
407420.54
 10
1244855.48
 20
407306.47
 10
1244863.46
 20
407206.31
 10
1245217.88
 20
407154.12
 10
1245239.27
 20
407190.98
 10
1245265.21
 20
407233.55
 10
1245286.01
 20
407266.38
 10
1245361.4
 20
407380.91
 10
1245375.19
 20
407400.18
 10
1245385.1
 20
407408.85
 10
1245396.69
 20
407415.35
 10
1245413.33
 20
407420.86
 10
1245438.06
 20
407425.89
 10
1245456.47
 20
407427.71
 10
1245473.76
 20
407426.47
 10
1245479.01
 20
407397.04
 10
1245484.19
 20
407380.77
 10
1245489.22
 20
407371.18
 10
1245530.79
 20
407326.91
 10
1245545.42
 20
407310.16
 10
1245559.67
 20
407290.18
 10
1245569.1
 20
407273.4
 10
1245570.58
 20
407272.16
 10
1245575.33
 20
407269.92
 10
1245556.64
 20
407191.28
 10
1245533.7
 20
407094.18
 10
1245576.85
 20
407087.8
 10
1245578.29
 20
407097.26
 10
1245583.95
 20
407104.91
 10
1245586.52
 20
407122.96
 10
1245625.42
 20
407118.09
  0
TEXT
  5
5DF
330
5DD
100
AcDbEntity
  8
0
 62
8
 67
0
100
AcDbText
 10
1245465.0
 20
407763.0
 40
25.0
  1
21:02:010107:9 Parcel
 50
0.0
 51
0.0
  7
STANDARD
 41
1.0
 71
0
 72
1
 11
1245465.0
 21
407763.0
100
AcDbText
 73
2
  0
ENDBLK
  5
5DC
330
5DD
100
AcDbEntity
  8
0
100
AcDbBlockEnd
  0
ENDSEC
  0
SECTION
  2
ENTITIES
  0
INSERT
  5
59E
330
1F
100
AcDbEntity
  8
0
 67
0
100
AcDbBlockReference
  2
21 02 010107
 10
0.0
 20
0.0
 41
1.0
 42
1.0
 43
1.0
 50
0.0
  0
INSERT
  5
5A4
330
1F
100
AcDbEntity
  8
0
 67
0
100
AcDbBlockReference
  2
21 02 010107 11
 10
0.0
 20
0.0
 41
1.0
 42
1.0
 43
1.0
 50
0.0
  0
INSERT
  5
5AA
330
1F
100
AcDbEntity
  8
0
 67
0
100
AcDbBlockReference
  2
21 02 010107 12
 10
0.0
 20
0.0
 41
1.0
 42
1.0
 43
1.0
 50
0.0
  0
INSERT
  5
5B0
330
1F
100
AcDbEntity
  8
0
 67
0
100
AcDbBlockReference
  2
21 02 010107 13
 10
0.0
 20
0.0
 41
1.0
 42
1.0
 43
1.0
 50
0.0
  0
INSERT
  5
5B6
330
1F
100
AcDbEntity
  8
0
 67
0
100
AcDbBlockReference
  2
21 02 010107 14
 10
0.0
 20
0.0
 41
1.0
 42
1.0
 43
1.0
 50
0.0
  0
INSERT
  5
5BC
330
1F
100
AcDbEntity
  8
0
 67
0
100
AcDbBlockReference
  2
21 02 010107 15
 10
0.0
 20
0.0
 41
1.0
 42
1.0
 43
1.0
 50
0.0
  0
INSERT
  5
5C2
330
1F
100
AcDbEntity
  8
0
 67
0
100
AcDbBlockReference
  2
21 02 010107 2
 10
0.0
 20
0.0
 41
1.0
 42
1.0
 43
1.0
 50
0.0
  0
INSERT
  5
5C8
330
1F
100
AcDbEntity
  8
0
 67
0
100
AcDbBlockReference
  2
21 02 010107 3
 10
0.0
 20
0.0
 41
1.0
 42
1.0
 43
1.0
 50
0.0
  0
INSERT
  5
5CE
330
1F
100
AcDbEntity
  8
0
 67
0
100
AcDbBlockReference
  2
21 02 010107 4
 10
0.0
 20
0.0
 41
1.0
 42
1.0
 43
1.0
 50
0.0
  0
INSERT
  5
5D4
330
1F
100
AcDbEntity
  8
0
 67
0
100
AcDbBlockReference
  2
21 02 010107 7
 10
0.0
 20
0.0
 41
1.0
 42
1.0
 43
1.0
 50
0.0
  0
INSERT
  5
5DA
330
1F
100
AcDbEntity
  8
0
 67
0
100
AcDbBlockReference
  2
21 02 010107 8
 10
0.0
 20
0.0
 41
1.0
 42
1.0
 43
1.0
 50
0.0
  0
INSERT
  5
5E0
330
1F
100
AcDbEntity
  8
0
 67
0
100
AcDbBlockReference
  2
21 02 010107 9
 10
0.0
 20
0.0
 41
1.0
 42
1.0
 43
1.0
 50
0.0
  0
ENDSEC
  0
SECTION
  2
OBJECTS
  0
DICTIONARY
  5
C
330
0
100
AcDbDictionary
281
1
  3
ACAD_COLOR
350
4A3
  3
ACAD_GROUP
350
4A4
  3
ACAD_LAYOUT
350
4A5
  3
ACAD_MATERIAL
350
4A6
  3
ACAD_MLEADERSTYLE
350
4A7
  3
ACAD_MLINESTYLE
350
4A8
  3
ACAD_PLOTSETTINGS
350
4A9
  3
ACAD_PLOTSTYLENAME
350
4AB
  3
ACAD_SCALELIST
350
4AC
  3
ACAD_TABLESTYLE
350
4AD
  3
ACAD_VISUALSTYLE
350
4AE
  0
DICTIONARY
  5
4A3
330
C
100
AcDbDictionary
281
1
  0
DICTIONARY
  5
4A4
330
C
100
AcDbDictionary
281
1
  0
DICTIONARY
  5
4A5
330
C
100
AcDbDictionary
281
1
  3
Model
350
4AF
  3
Layout1
350
4B0
  0
DICTIONARY
  5
4A6
330
C
100
AcDbDictionary
281
1
  0
DICTIONARY
  5
4A7
330
C
100
AcDbDictionary
281
1
  0
DICTIONARY
  5
4A8
330
C
100
AcDbDictionary
281
1
  0
DICTIONARY
  5
4A9
330
C
100
AcDbDictionary
281
1
  0
ACDBPLACEHOLDER
  5
4AA
330
4AB
  0
ACDBDICTIONARYWDFLT
  5
4AB
330
C
100
AcDbDictionary
281
1
  3
Normal
350
4AA
100
AcDbDictionaryWithDefault
340
4AA
  0
DICTIONARY
  5
4AC
330
C
100
AcDbDictionary
281
1
  0
DICTIONARY
  5
4AD
330
C
100
AcDbDictionary
281
1
  0
DICTIONARY
  5
4AE
330
C
100
AcDbDictionary
281
1
  0
LAYOUT
  5
4AF
330
4A5
100
AcDbPlotSettings
  1

  2
DWFx ePlot (XPS Compatible).pc3
  4
ANSI_A_(8.50_x_11.00_Inches)
  6

 40
5.8
 41
17.8
 42
5.8
 43
17.8
 44
215.9
 45
279.4
 46
0.0
 47
0.0
 48
0.0
 49
0.0
140
0.0
141
0.0
142
1.0
143
14.53
 70
11952
 72
0
 73
1
 74
0
  7

 75
0
147
0.069
148
114.98
149
300.29
100
AcDbLayout
  1
Model
 70
1
 71
0
 10
0.0
 20
0.0
 11
12.0
 21
9.0
 12
0.0
 22
0.0
 32
0.0
 14
0.0
 24
0.0
 34
0.0
 15
0.0
 25
0.0
 35
0.0
146
0.0
 13
0.0
 23
0.0
 33
0.0
 16
1.0
 26
0.0
 36
0.0
 17
0.0
 27
1.0
 37
0.0
 76
0
330
1F
  0
LAYOUT
  5
4B0
330
4A5
100
AcDbPlotSettings
  1

  2
DWFx ePlot (XPS Compatible).pc3
  4
ANSI_A_(8.50_x_11.00_Inches)
  6

 40
5.8
 41
17.8
 42
5.8
 43
17.8
 44
215.9
 45
279.4
 46
0.0
 47
0.0
 48
0.0
 49
0.0
140
0.0
141
0.0
142
1.0
143
1.0
 70
688
 72
0
 73
1
 74
5
  7
acad.ctb
 75
16
147
1.0
148
0.0
149
0.0
100
AcDbLayout
  1
Layout1
 70
1
 71
1
 10
-0.7
 20
-0.23
 11
10.3
 21
8.27
 12
0.0
 22
0.0
 32
0.0
 14
0.63
 24
0.8
 34
0.0
 15
9.0
 25
7.2
 35
0.0
146
0.0
 13
0.0
 23
0.0
 33
0.0
 16
1.0
 26
0.0
 36
0.0
 17
0.0
 27
1.0
 37
0.0
 76
0
330
58
  0
ENDSEC
  0
EOF
